<?xml version="1.0" encoding="UTF-8"?>
<svg xmlns="http://www.w3.org/2000/svg" viewBox="0 0 602 180">
  <path fill="#FF9900" d="M374.006 142.184c-35 25.797-85.729 39.561-129.406 39.561-61.242 0-116.376-22.651-158.087-60.325-3.278-2.962-.341-7 3.591-4.693 45.015 26.191 100.673 41.947 158.166 41.947 38.775 0 81.43-8.022 120.65-24.67 5.925-2.516 10.88 3.88 5.086 8.18"/>
  <path fill="#FF9900" d="M388.557 125.536c-4.457-5.715-29.573-2.7-40.846-1.363-3.434.42-3.959-2.57-.865-4.719 20.003-14.078 52.827-10.015 56.654-5.296 3.828 4.745-.996 37.648-19.793 53.352-2.884 2.411-5.637 1.127-4.352-2.072 4.22-10.539 13.685-34.16 9.202-39.902"/>
  <path fill="#000000" d="M348.497 20.066V6.381c0-2.071 1.573-3.46 3.461-3.46h61.269c1.966 0 3.54 1.415 3.54 3.46v11.62c0 1.966-1.679 4.535-4.615 8.599l-31.749 45.329c11.798-.299 24.25 1.468 34.947 7.498 2.412 1.363 3.068 3.356 3.251 5.322v14.452c0 1.992-2.202 4.325-4.509 3.12-18.85-9.884-43.887-10.959-64.73.104-2.123 1.154-4.351-1.153-4.351-3.146V85.661c0-2.229.104-6.042 2.255-9.424l36.782-52.742h-32.011c-1.966 0-3.539-1.388-3.539-3.429"/>
  <path fill="#000000" d="M124.999 105.454h-18.64c-1.783-.13-3.199-1.469-3.329-3.172V6.617c0-1.914 1.599-3.434 3.592-3.434h17.382c1.809.104 3.25 1.468 3.382 3.198v12.505h.34c4.536-12.086 13.056-17.722 24.54-17.722 11.666 0 18.954 5.636 24.198 17.722 4.509-12.086 14.76-17.722 25.744-17.722 7.817 0 16.36 3.225 21.577 10.461 5.899 8.049 4.693 19.741 4.693 29.992l-.026 61.553c0 1.914-1.599 3.461-3.592 3.461h-18.614c-1.861-.13-3.356-1.625-3.356-3.461V51.29c0-4.037.367-14.104-.524-17.932-1.389-6.423-5.558-8.232-10.959-8.232-4.509 0-9.228 3.015-11.142 7.839-1.914 4.824-1.73 12.899-1.73 18.325v50.704c0 1.914-1.6 3.461-3.592 3.461h-18.614c-1.888-.13-3.357-1.625-3.357-3.461l-.026-50.704c0-10.67 1.757-26.374-11.483-26.374-13.397 0-12.872 15.311-12.872 26.374v50.704c0 1.914-1.6 3.461-3.592 3.461"/>
  <path fill="#000000" d="M469.514 1.163c27.66 0 42.629 23.752 42.629 53.954 0 29.179-16.543 52.329-42.629 52.329-27.16 0-41.947-23.752-41.947-53.352 0-29.782 14.97-52.931 41.947-52.931m.157 19.532c-13.738 0-14.603 18.719-14.603 30.386 0 11.692-.184 36.651 14.446 36.651 14.446 0 15.127-20.134 15.127-32.402 0-8.075-.341-17.723-2.778-25.378-2.097-6.659-6.266-9.257-12.192-9.257"/>
  <path fill="#000000" d="M548.009 105.454h-18.562c-1.861-.13-3.356-1.625-3.356-3.461l-.026-95.691c.157-1.756 1.704-3.12 3.592-3.12h17.277c1.625.078 2.962 1.18 3.33 2.674v14.63h.34c5.217-13.083 12.532-19.322 25.404-19.322 8.363 0 16.517 3.015 21.76 11.273 4.877 7.655 4.877 20.528 4.877 29.782v60.323c-.21 1.678-1.757 3.015-3.592 3.015h-18.693c-1.704-.13-3.12-1.39-3.303-3.015V51.29c0-10.461 1.206-25.771-11.667-25.771-4.535 0-8.704 3.041-10.775 7.655-2.622 5.845-2.962 11.666-2.962 18.116v50.704c-.026 1.914-1.652 3.461-3.644 3.461"/>
  <path fill="#000000" d="M55.288 59.758v-4.037c-13.475 0-27.71 2.881-27.71 18.089 0 7.759 4.04 13.032 10.958 13.032 5.062 0 9.599-3.119 12.453-8.232 3.537-6.37 4.299-12.033 4.299-18.852m18.798 45.434c-1.232 1.101-3.015 1.18-4.404.446-6.187-5.139-7.289-7.524-10.696-12.427-10.225 10.434-17.46 13.554-30.726 13.554-15.678 0-27.895-9.674-27.895-29.048 0-15.127 8.18-25.43 19.872-30.464 10.12-4.457 24.25-5.244 35.052-6.476v-2.412c0-4.431.341-9.674-2.255-13.501-2.281-3.435-6.633-4.85-10.461-4.85-7.106 0-13.45 3.644-14.997 11.194-.315 1.678-1.547 3.33-3.225 3.408l-18.09-1.94c-1.521-.34-3.225-1.573-2.778-3.906C7.652 6.853 27.446.246 45.169.246c9.07 0 20.92 2.412 28.078 9.281 9.07 8.469 8.206 19.768 8.206 32.063v29.048c0 8.73 3.618 12.558 7.026 17.277 1.206 1.625 1.47 3.593-.053 4.824-3.801 3.173-10.565 9.071-14.288 12.374l-.052-.051"/>
</svg>
