<?xml version="1.0" standalone="no"?>
<!DOCTYPE svg PUBLIC "-//W3C//DTD SVG 20010904//EN"
 "http://www.w3.org/TR/2001/REC-SVG-20010904/DTD/svg10.dtd">
<svg version="1.0" xmlns="http://www.w3.org/2000/svg"
 width="1080.000000pt" height="1080.000000pt" viewBox="0 0 1080.000000 1080.000000"
 preserveAspectRatio="xMidYMid meet">

<g transform="translate(0.000000,1080.000000) scale(0.100000,-0.100000)"
fill="#ffffff" stroke="none">
<path d="M2587 7068 c-96 -113 -120 -158 -407 -753 -171 -355 -320 -703 -400
-935 -18 -52 -42 -105 -53 -117 l-20 -23 -384 0 c-347 0 -384 -2 -390 -16 -4
-11 1 -22 13 -31 15 -11 85 -14 378 -12 207 0 362 -3 367 -8 6 -6 -10 -64 -40
-149 -253 -709 -393 -1153 -406 -1290 -6 -59 -4 -73 10 -87 27 -28 53 -20 85
25 30 41 53 109 150 433 101 336 338 1051 354 1064 17 14 955 16 968 3 9 -9
36 -200 38 -259 0 -15 -29 -50 -91 -110 -150 -145 -221 -246 -235 -332 -13
-80 20 -131 118 -183 89 -48 159 -116 202 -198 21 -39 48 -77 61 -86 32 -21
67 -14 82 16 18 35 16 318 -2 540 -18 212 -18 288 -2 316 7 11 62 68 123 125
173 163 240 188 487 184 130 -2 139 -4 163 -26 78 -73 105 -251 134 -869 5
-129 15 -336 22 -460 15 -297 15 -886 0 -965 -8 -39 -26 -79 -52 -118 -46 -69
-57 -112 -40 -161 15 -46 62 -96 90 -96 61 0 112 78 130 201 20 136 15 882 -9
1429 -30 688 -41 812 -86 986 -8 32 -12 61 -7 65 12 12 470 15 482 3 7 -7 4
-36 -11 -100 -27 -112 -24 -275 6 -338 32 -66 107 -81 189 -39 55 29 146 126
197 210 61 101 92 139 130 158 46 24 80 18 164 -32 75 -45 84 -48 150 -48 61
0 80 5 145 37 41 20 117 64 169 98 l94 61 156 -1 c86 -1 181 -2 211 -2 30 -1
309 -1 620 0 311 1 580 2 598 2 l32 0 0 -125 0 -125 213 2 c204 3 212 4 212
23 0 19 -8 20 -190 25 l-190 5 -3 89 c-2 49 1 93 6 98 10 10 447 12 462 3 6
-4 10 -59 10 -126 0 -112 1 -119 20 -119 19 0 20 7 20 125 0 93 3 125 13 126
17 1 109 1 129 0 15 -1 18 -16 20 -123 3 -115 4 -123 23 -123 19 0 20 8 23
120 1 65 7 122 11 125 5 3 72 4 150 2 l140 -3 3 -122 c3 -114 4 -122 23 -122
19 0 20 8 23 123 l3 122 55 0 c60 0 59 1 69 -72 14 -110 109 -192 220 -192 99
1 203 64 220 137 11 42 -27 37 -55 -8 -32 -51 -95 -85 -159 -85 -101 0 -166
62 -186 179 l-7 41 34 0 c766 0 1050 3 1078 9 26 5 35 12 35 26 0 19 -11 20
-364 25 l-364 5 -16 53 c-33 107 -108 165 -218 165 -105 0 -174 -54 -212 -165
l-18 -53 -55 -3 -55 -3 -6 56 c-10 96 -85 165 -182 165 -47 0 -112 -28 -140
-60 l-20 -22 -5 33 c-4 26 -10 34 -25 34 -18 0 -20 -8 -25 -100 l-5 -100 -75
0 -75 0 -5 100 c-4 84 -8 100 -22 103 -15 3 -18 -9 -20 -100 l-3 -103 -229 -3
c-177 -2 -231 1 -238 10 -4 7 -8 100 -8 206 0 185 -1 192 -20 192 -19 0 -20
-8 -22 -202 l-3 -203 -526 -3 c-414 -2 -529 1 -537 10 -7 10 7 37 52 99 33 48
101 144 150 214 208 295 364 430 616 531 136 55 297 97 482 126 131 20 178 22
583 23 407 0 443 2 478 19 43 21 87 69 87 95 0 26 -36 54 -68 54 -16 0 -46
-12 -68 -27 -21 -14 -68 -36 -104 -47 -60 -20 -92 -22 -425 -24 -466 -4 -685
-30 -931 -110 -332 -109 -522 -279 -797 -716 -40 -64 -89 -106 -134 -115 -49
-10 -78 25 -107 130 -14 49 -33 100 -41 113 -32 48 -82 20 -160 -89 -137 -193
-189 -260 -216 -273 -40 -21 -997 -21 -1005 0 -14 36 73 140 154 183 53 29 71
49 72 84 1 40 -110 52 -166 17 -52 -32 -111 -106 -151 -188 -59 -122 -28 -111
-325 -111 -290 0 -263 -7 -324 82 -23 32 -49 54 -90 74 -53 26 -69 29 -154 29
-121 -1 -172 -20 -300 -115 l-94 -70 -133 0 c-125 0 -133 1 -147 22 -9 12 -16
39 -16 60 0 21 -11 129 -25 241 -43 355 -64 545 -90 832 -38 425 -72 639 -112
703 -23 38 -56 28 -106 -30z m47 -164 c9 -8 16 -22 16 -30 0 -8 16 -162 34
-342 97 -917 128 -1263 114 -1279 -8 -11 -98 -13 -462 -11 -416 3 -451 4 -454
20 -4 23 252 687 368 953 54 123 324 670 342 693 14 16 23 15 42 -4z m5633
-1501 c46 -21 73 -67 73 -120 l0 -43 -150 0 -150 0 0 33 c0 68 84 146 158 147
19 0 50 -8 69 -17z m572 -14 c44 -32 87 -108 77 -135 -5 -12 -35 -14 -183 -12
l-178 3 3 30 c4 41 50 104 92 126 22 12 55 19 91 19 47 0 63 -5 98 -31z
m-2960 -75 c12 -15 21 -37 21 -50 0 -23 -3 -24 -80 -24 -90 0 -99 9 -52 52 58
54 82 59 111 22z m-1074 -136 c11 -10 -52 -161 -85 -207 -37 -51 -82 -82 -128
-88 -74 -10 -95 59 -63 206 21 96 29 100 160 98 60 -1 113 -5 116 -9z m685 -7
c0 -16 -102 -60 -164 -72 -84 -15 -166 0 -228 43 -16 11 -28 24 -28 29 0 5 87
9 210 9 122 0 210 -4 210 -9z m-2630 -470 c11 -22 14 -320 2 -337 -4 -6 -17
-16 -30 -23 -32 -17 -75 10 -119 73 -56 81 -42 149 54 261 41 48 75 58 93 26z"/>
<path d="M3750 6420 c-41 -10 -80 -51 -80 -85 0 -40 48 -84 110 -100 135 -36
250 -3 250 71 0 65 -178 137 -280 114z"/>
<path d="M7790 5615 c0 -28 4 -35 20 -35 16 0 20 7 20 35 0 28 -4 35 -20 35
-16 0 -20 -7 -20 -35z"/>
</g>
</svg>
