<?xml version="1.0" encoding="UTF-8"?>
<svg version="1.1" xmlns="http://www.w3.org/2000/svg" width="4032" height="3024">
<path d="M0 0 C1.59834183 0.00456207 1.59834183 0.00456207 3.22897339 0.00921631 C20.04821542 0.07996136 36.31521595 0.89892886 52.8125 4.4375 C53.85535156 4.65712402 54.89820313 4.87674805 55.97265625 5.10302734 C89.45171641 12.35853532 121.57896534 26.54628946 148.27099609 48.18847656 C149.76076837 49.39558378 151.26493144 50.58486328 152.76953125 51.7734375 C168.40907631 64.50189908 183.01539137 79.06358668 194.8125 95.4375 C195.65227557 96.56092143 196.49344558 97.68330171 197.3359375 98.8046875 C235.02841593 149.54344972 243.97668865 207.29829719 243.95788372 268.82233989 C243.95767729 273.04685146 243.96322124 277.27135647 243.96794128 281.49586487 C243.9761969 289.74907442 243.97899381 298.00227683 243.97955366 306.25549018 C243.98003129 312.97485827 243.98209825 319.69422403 243.98525429 326.41359138 C243.99404726 345.52763413 243.99867584 364.6416713 243.99792381 383.75571608 C243.99786388 385.29674038 243.99786388 385.29674038 243.99780273 386.86889648 C243.99776185 387.89752243 243.99772097 388.92614838 243.99767885 389.98594481 C243.99727285 406.63653601 244.0068344 423.28710453 244.0209411 439.93768918 C244.03536194 457.09653579 244.04220815 474.25537139 244.04134732 491.41422421 C244.0410173 501.02256769 244.04367814 510.63088742 244.05452538 520.23922539 C244.06370594 528.42270715 244.06574451 536.60615438 244.05901595 544.78963911 C244.05578826 548.95113668 244.05555496 553.11256832 244.0643692 557.2740593 C244.22262226 637.18612762 224.16602798 702.05665305 167.3125 760.125 C162.09575188 765.28255097 156.59818065 769.93391969 150.8125 774.4375 C149.92433594 775.14261719 149.03617188 775.84773438 148.12109375 776.57421875 C127.68503951 792.40576564 104.47517785 805.12881984 79.75146484 812.82714844 C77.84095344 813.42854337 75.94554848 814.07726532 74.05078125 814.7265625 C27.95531678 830.00069611 -28.12945099 828.75156008 -74.1875 814.4375 C-75.03812012 814.17598145 -75.88874023 813.91446289 -76.76513672 813.64501953 C-103.40963074 805.29208063 -127.42058351 791.82131726 -149.1875 774.4375 C-149.76387207 773.97827148 -150.34024414 773.51904297 -150.93408203 773.04589844 C-166.7306501 760.3121625 -181.17421851 745.78835568 -193.1875 729.4375 C-193.97253906 728.42429687 -194.75757813 727.41109375 -195.56640625 726.3671875 C-226.1140066 686.77418942 -241.36112626 637.51840956 -241.32794189 587.81196594 C-241.3305304 586.24802728 -241.3335449 584.68408928 -241.3369453 583.12015218 C-241.34496195 578.84733678 -241.34680187 574.57453823 -241.34754276 570.30171621 C-241.34940274 565.68313425 -241.35695488 561.06456085 -241.36367798 556.44598389 C-241.37722509 546.35650381 -241.38328071 536.26702772 -241.38768864 526.17754006 C-241.39045789 519.86736928 -241.39469654 513.55720001 -241.39919281 507.24703026 C-241.41138206 489.74763873 -241.4216812 472.24824841 -241.4250679 454.74885273 C-241.42528747 453.63011666 -241.42550703 452.5113806 -241.42573325 451.35874344 C-241.42595153 450.23744838 -241.42616981 449.11615332 -241.4263947 447.96087962 C-241.42683815 445.68900764 -241.42728472 443.41713566 -241.42773438 441.14526367 C-241.4279558 440.01835541 -241.42817723 438.89144715 -241.42840537 437.73039015 C-241.43234823 419.49551361 -241.44978813 401.26067714 -241.4730939 383.02581606 C-241.49687388 364.26714449 -241.50927281 345.50849298 -241.51043582 326.74980611 C-241.51134899 316.2326652 -241.51701034 305.71557651 -241.53525543 295.19845009 C-241.5507466 286.23768004 -241.5557243 277.27697834 -241.54751733 268.31619743 C-241.54364211 263.75422095 -241.54438479 259.1923817 -241.55857468 254.63042259 C-241.74546493 190.77061714 -225.74439104 127.39572032 -180.6953125 79.8046875 C-179.40524881 78.52407483 -178.10154515 77.2567387 -176.7734375 76.015625 C-175.08464727 74.42100726 -175.08464727 74.42100726 -173.6015625 72.234375 C-173.13492187 71.64140625 -172.66828125 71.0484375 -172.1875 70.4375 C-171.5275 70.4375 -170.8675 70.4375 -170.1875 70.4375 C-169.6925 68.9525 -169.6925 68.9525 -169.1875 67.4375 C-167.7265625 65.96484375 -167.7265625 65.96484375 -165.8125 64.375 C-162.56385377 61.63449 -159.45845086 58.79970846 -156.375 55.875 C-113.52355464 17.03166783 -57.06423504 -0.34828384 0 0 Z M-95.1875 105.4375 C-96.02023437 106.05882812 -96.85296875 106.68015625 -97.7109375 107.3203125 C-107.95750581 115.24565175 -118.15550734 124.23841724 -126.1875 134.4375 C-126.61208496 134.96617676 -127.03666992 135.49485352 -127.47412109 136.03955078 C-159.3397581 175.94433733 -164.34803845 219.95485731 -164.33288372 269.49441791 C-164.33267764 273.70591729 -164.33821791 277.91741005 -164.34294128 282.12890625 C-164.35120385 290.35932234 -164.35399412 298.58973127 -164.35455366 306.82015117 C-164.35503088 313.51815697 -164.35709583 320.21616043 -164.36025429 326.9141655 C-164.36904855 345.9546778 -164.37367554 364.9951845 -164.37292381 384.03569885 C-164.37288386 385.05951881 -164.3728439 386.08333878 -164.37280273 387.13818359 C-164.37276185 388.16327087 -164.37272097 389.18835814 -164.37267885 390.24450867 C-164.37227264 406.84687264 -164.38183918 423.44921391 -164.3959411 440.05157132 C-164.41034688 457.1481798 -164.41720899 474.24477723 -164.41634732 491.34139192 C-164.41601682 500.91998339 -164.41869912 510.49855104 -164.42952538 520.07713699 C-164.43868586 528.23336189 -164.44076049 536.38955217 -164.43401595 544.54578002 C-164.43077861 548.69651792 -164.43059154 552.84718963 -164.4393692 556.99792099 C-164.52740735 601.45500165 -160.18929483 642.57504254 -133.125 679.5 C-132.55982666 680.27287354 -131.99465332 681.04574707 -131.41235352 681.84204102 C-127.40934652 687.16115243 -122.98603545 691.83241055 -118.1875 696.4375 C-113.1875 701.4375 -113.1875 701.4375 -111.515625 703.28515625 C-94.05751878 721.92743634 -69.5825171 734.65797639 -45.1875 741.4375 C-44.10339844 741.75074219 -43.01929688 742.06398438 -41.90234375 742.38671875 C-5.90084585 752.11044348 36.11332537 748.42240669 69.8125 732.4375 C70.93785156 731.91414063 72.06320312 731.39078125 73.22265625 730.8515625 C81.23410299 726.9983966 88.57487803 722.58921216 95.8125 717.4375 C96.75351563 716.78394531 97.69453125 716.13039063 98.6640625 715.45703125 C135.19396431 689.21654922 158.39144203 651.60112768 165.8125 607.4375 C165.9824129 606.53802051 166.1523258 605.63854102 166.32738757 604.71180457 C166.82238088 601.37080822 166.94022212 598.22517183 166.94392776 594.84891987 C166.94776891 593.53196733 166.95161005 592.21501479 166.9555676 590.85815459 C166.95478743 589.40326451 166.95390866 587.94837447 166.95294189 586.4934845 C166.95552687 584.94267204 166.9585404 583.39186025 166.9619453 581.84104937 C166.97000363 577.58148888 166.97180423 573.32194526 166.97254276 569.06237805 C166.97439546 564.46698056 166.98194412 559.87159178 166.98867798 555.27619934 C167.0022558 545.22601385 167.00828579 535.17583234 167.01268864 525.1256392 C167.01545325 518.84484857 167.01969112 512.56405947 167.02419281 506.28326988 C167.03638713 488.8801486 167.04668458 471.47702855 167.0500679 454.07390308 C167.05028747 452.96013644 167.05050703 451.84636979 167.05073325 450.69885264 C167.05095153 449.58246463 167.05116981 448.46607661 167.0513947 447.31585866 C167.05183816 445.05375278 167.05228472 442.7916469 167.05273438 440.52954102 C167.0529558 439.40746554 167.05317723 438.28539006 167.05340537 437.1293123 C167.0573484 418.97157155 167.07478654 400.81387106 167.0980939 382.65614585 C167.12185189 363.99596778 167.13427185 345.33580987 167.13543582 326.67561644 C167.13635034 316.20606812 167.14204577 305.73657218 167.16025543 295.26703835 C167.17571686 286.34626163 167.18074161 277.42555348 167.17251733 268.50476591 C167.16863147 263.95964566 167.1694383 259.41466321 167.18357468 254.86956024 C167.41042017 229.49376755 167.41042017 229.49376755 163.8125 204.4375 C163.65837473 203.75660895 163.50424947 203.0757179 163.34545374 202.37419379 C153.53512859 159.61492955 124.37131155 122.83262604 87.8125 99.4375 C31.91536891 64.73620802 -42.15184409 65.55118026 -95.1875 105.4375 Z " fill="#FFFFFF" transform="translate(1733.1875,979.5625)"/>
<path d="M0 0 C0.79249146 -0.00700928 1.58498291 -0.01401855 2.40148926 -0.02124023 C5.01281096 -0.0387998 7.62304288 -0.02720524 10.234375 -0.01367188 C12.05371305 -0.01636739 13.87304969 -0.0202503 15.69238281 -0.02526855 C19.50209289 -0.03116082 23.31142739 -0.02260948 27.12109375 -0.00390625 C32.00048723 0.01888324 36.87900062 0.00575869 41.75836182 -0.01819611 C45.51422741 -0.03266147 49.26988491 -0.02804473 53.02575684 -0.01768494 C54.8246674 -0.01501969 56.62359697 -0.01828031 58.42248535 -0.02760315 C60.93841478 -0.03778109 63.45292601 -0.02225148 65.96875 0 C67.08014343 -0.01214539 67.08014343 -0.01214539 68.21398926 -0.02453613 C71.6424428 0.03153998 73.84456233 0.43808771 76.84172058 2.14212036 C79.45163508 5.03560687 80.24082625 7.2915408 81.2824707 11.04248047 C81.46952292 11.69690282 81.65657515 12.35132517 81.84929562 13.0255785 C82.47006348 15.21379959 83.06493902 17.40821896 83.66015625 19.60351562 C84.10088365 21.17689376 84.54320618 22.74982582 84.98699951 24.32234192 C86.19140327 28.60703003 87.37354824 32.89758492 88.55208206 37.18944931 C89.80923674 41.75212823 91.08721049 46.30896932 92.36303711 50.86645508 C94.50891296 58.54188679 96.64269009 66.22058802 98.76757812 73.90185547 C101.84769265 85.0353776 104.95172841 96.16211973 108.0625 107.28710938 C109.06101892 110.8591713 110.05936228 114.43128226 111.05761719 118.00341797 C111.30397038 118.88491013 111.55032356 119.76640228 111.804142 120.67460632 C113.56164401 126.96466645 115.31541711 133.25575907 117.06738281 139.54736328 C123.68213829 163.30025612 130.34386081 187.03944579 137.046875 210.76757812 C138.8582983 217.1802749 140.66961014 223.59300311 142.48046875 230.00585938 C142.70496138 230.80083202 142.929454 231.59580467 143.16074944 232.4148674 C148.66843456 251.92131067 154.13945949 271.43801689 159.609375 290.95507812 C166.67604288 316.16812722 173.75497592 341.37763383 180.859375 366.58007812 C188.31054505 393.01374447 195.74608244 419.4517713 203.171875 445.89257812 C203.6997984 447.77228806 204.22772198 449.65199794 204.75564575 451.53170776 C208.76809382 465.81850779 212.77989267 480.10549011 216.79164124 494.39248657 C220.52923229 507.70310152 224.26700789 521.01366462 228.00529099 534.32408524 C228.53326455 536.20397378 229.06123136 538.08386423 229.58919144 539.96375656 C236.95199054 566.18007251 244.32658028 592.39303209 251.71463394 618.60224152 C258.90124467 644.09715058 266.05993794 669.59982769 273.20972061 695.10508728 C280.55564125 721.30973131 287.91648219 747.51012118 295.296875 773.70507812 C295.62197556 774.85904083 295.62197556 774.85904083 295.9536438 776.03631592 C297.37631511 781.08615341 298.79934928 786.13588851 300.22265625 791.18554688 C300.5767305 792.44191452 300.93080475 793.69828217 301.29560852 794.99272156 C301.6225621 796.15229874 301.94951569 797.31187592 302.28637695 798.5065918 C302.58403961 799.56405609 302.88170227 800.62152039 303.18838501 801.71102905 C303.84607418 804.02994882 304.51977588 806.34314773 305.19995117 808.65551758 C306.3974444 813.02470933 306.627386 816.10295392 304.734375 820.26757812 C302.81647657 822.73344753 301.86779847 823.4194457 298.984375 824.51757812 C295.95545959 824.78500366 295.95545959 824.78500366 292.36743164 824.80810547 C291.38373848 824.8181813 291.38373848 824.8181813 290.38017273 824.82846069 C288.2182146 824.84741609 286.05656724 824.85136339 283.89453125 824.85351562 C282.38764825 824.85994462 280.8807665 824.86667306 279.37388611 824.87368774 C276.2174083 824.88565386 273.0610399 824.8893692 269.90454102 824.88818359 C265.86476442 824.88798029 261.82569041 824.91529649 257.78608036 824.94972801 C254.67448214 824.97199052 251.56305329 824.97602137 248.45138359 824.97496414 C246.96226006 824.97732054 245.4731319 824.98614641 243.98408699 825.00162888 C241.89913126 825.02128005 239.81569435 825.01545669 237.73071289 825.00341797 C236.54586807 825.00626801 235.36102325 825.00911804 234.14027405 825.01205444 C230.29785169 824.41001147 228.6830602 823.28246832 225.984375 820.51757812 C224.95567322 818.5050354 224.95567322 818.5050354 224.36694336 816.30517578 C224.12673965 815.44669037 223.88653595 814.58820496 223.63905334 813.70370483 C223.39078293 812.74767365 223.14251251 811.79164246 222.88671875 810.80664062 C222.45684914 809.2472728 222.45684914 809.2472728 222.01829529 807.65640259 C221.36314186 805.27948569 220.71518556 802.90057786 220.07293701 800.5201416 C218.90478199 796.2022464 217.6893611 791.89818084 216.46923828 787.59472656 C214.53611241 780.77175133 212.61078517 773.94667491 210.69555664 767.11865234 C210.44054225 766.20955423 210.18552786 765.30045612 209.92278576 764.36380959 C209.39773661 762.49186764 208.87273082 760.61991353 208.34776688 758.74794769 C207.53934513 755.86573234 206.73043163 752.98365545 205.9213562 750.10162354 C196.38843156 716.14362093 186.89735233 682.17396053 177.42602539 648.19873047 C177.17989439 647.31588253 176.93376339 646.43303459 176.68017387 645.52343369 C175.53032978 641.39897976 174.38072485 637.27445957 173.23168945 633.14978027 C172.82707264 631.69799649 172.42245057 630.24621417 172.01782227 628.79443359 C171.67131119 627.55063934 171.32480011 626.30684509 170.9677887 625.02536011 C169.98491233 621.51949477 168.98464431 618.01852072 167.984375 614.51757812 C76.574375 614.18757813 -14.835625 613.85757813 -109.015625 613.51757812 C-109.675625 616.81757812 -110.335625 620.11757812 -111.015625 623.51757812 C-111.6622417 625.95074625 -112.34396692 628.37492861 -113.06494141 630.78710938 C-113.26126946 631.44860929 -113.45759752 632.11010921 -113.65987492 632.79165459 C-114.30816866 634.97238801 -114.96270477 637.15119497 -115.6171875 639.33007812 C-116.08725302 640.9075139 -116.55687055 642.48508322 -117.02607727 644.06277466 C-118.03280522 647.44525815 -119.0420958 650.82696164 -120.05343628 654.20806885 C-122.4928162 662.36458024 -124.91792451 670.52533976 -127.34396935 678.68582535 C-127.90614955 680.57662712 -128.46848943 682.46738143 -129.03098488 684.35808945 C-135.14147722 704.89760893 -141.1759213 725.45912561 -147.188591 746.02746582 C-147.94141698 748.60253048 -148.69456377 751.17750109 -149.44781494 753.75244141 C-150.41058406 757.04363138 -151.37287826 760.3349596 -152.33477783 763.62640381 C-153.25261119 766.76699216 -154.17197811 769.90712542 -155.09246826 773.04693604 C-157.06922975 779.79708582 -159.0332679 786.54981789 -160.93604565 793.32125282 C-161.74688169 796.20600453 -162.56468188 799.08876442 -163.38257027 801.97152328 C-163.93869021 803.94468987 -164.48330278 805.92078596 -165.02757263 807.89724731 C-168.16653989 818.95491834 -168.16653989 818.95491834 -172.015625 823.51757812 C-174.82498737 824.92225931 -177.17128107 824.66038334 -180.3137207 824.67871094 C-180.95947052 824.68367584 -181.60522034 824.68864075 -182.27053833 824.6937561 C-184.41083842 824.70838277 -186.55106435 824.71518115 -188.69140625 824.72070312 C-190.17872622 824.72645497 -191.66604616 824.7322127 -193.15336609 824.73797607 C-196.27469224 824.74848805 -199.39599262 824.75432915 -202.51733398 824.7578125 C-206.51218782 824.76329213 -210.50669994 824.78730762 -214.50144672 824.81578445 C-217.57528163 824.83443337 -220.64903468 824.83961766 -223.72292137 824.84114838 C-225.19529268 824.84417129 -226.66766268 824.85218766 -228.13997841 824.86533356 C-230.20336283 824.88243898 -232.26591863 824.88050327 -234.3293457 824.87402344 C-235.50245804 824.87766907 -236.67557037 824.8813147 -237.88423157 824.8850708 C-241.36111141 824.47703268 -243.22561109 823.59516993 -246.015625 821.51757812 C-248.70181645 817.24409173 -247.83259783 813.26282041 -247.015625 808.51757812 C-246.38498481 805.96950262 -245.72037079 803.47985197 -244.97216797 800.96850586 C-244.76460625 800.25363762 -244.55704453 799.53876938 -244.34319305 798.80223846 C-243.65385511 796.43348354 -242.95585008 794.06737635 -242.2578125 791.70117188 C-241.76171489 790.00280846 -241.26617421 788.30428228 -240.77114868 786.60560608 C-239.70866928 782.96404228 -238.64235965 779.32363073 -237.57299805 775.68408203 C-235.8662364 769.87512018 -234.16787433 764.06372303 -232.47070312 758.25195312 C-230.1277627 750.2313529 -227.78133445 742.21178142 -225.43261719 734.19287109 C-222.31737871 723.55534153 -219.21392134 712.91441423 -216.1171875 702.27148438 C-215.88395279 701.46993298 -215.65071808 700.66838158 -215.41041565 699.84254074 C-214.47581591 696.63046499 -213.54130346 693.41836387 -212.60694885 690.20621681 C-210.96580279 684.56428472 -209.3235607 678.92267257 -207.68066406 673.28125 C-200.66040052 649.17453606 -193.64867934 625.06534401 -186.640625 600.95507812 C-186.38139503 600.063242 -186.12216507 599.17140587 -185.85507965 598.2525444 C-181.90830579 584.6743063 -177.96192268 571.09595463 -174.015625 557.51757812 C-169.8075112 543.03834765 -165.59925835 528.5591576 -161.390625 514.08007812 C-161.1312339 513.18767803 -160.8718428 512.29527794 -160.60459137 511.37583542 C-152.67887038 484.10867229 -144.74527189 456.84381154 -136.80595398 429.58060455 C-129.07732879 403.04075185 -121.35593672 376.49880424 -113.640625 349.95507812 C-113.38110046 349.062211 -113.12157593 348.16934387 -112.85418701 347.24942017 C-110.48751143 339.10705376 -108.12093541 330.96465841 -105.75445557 322.82223511 C-102.08930759 310.21145199 -98.42373028 297.60079374 -94.7578125 284.99023438 C-94.50019135 284.10402908 -94.24257019 283.21782379 -93.97714233 282.30476379 C-91.89667048 275.14804309 -89.81617202 267.99133013 -87.735672 260.83461761 C-85.91491455 254.57138937 -84.09416915 248.30815762 -82.2734375 242.04492188 C-82.01585663 241.15885757 -81.75827576 240.27279327 -81.4928894 239.35987854 C-77.82353704 226.7374527 -74.15465948 214.11488892 -70.48606491 201.49224281 C-64.5097983 180.92957668 -58.53227806 160.36727533 -52.55322266 139.80541992 C-51.5254988 136.27109334 -50.49783253 132.73675003 -49.47021484 129.20239258 C-48.18765816 124.7912311 -46.90498495 120.38010353 -45.6222229 115.96900177 C-45.11484926 114.22423382 -44.60750456 112.47945745 -44.10018921 110.73467255 C-41.40987453 101.48226829 -38.71689123 92.23065874 -36.015625 82.98144531 C-35.08844252 79.80601852 -34.16138855 76.63055423 -33.234375 73.45507812 C-32.89785416 72.30264492 -32.89785416 72.30264492 -32.55453491 71.12693024 C-29.84354725 61.83975974 -27.15905461 52.54570995 -24.51559448 43.23908997 C-23.1330494 38.37680478 -21.73834949 33.51805488 -20.34185791 28.65975952 C-19.71638671 26.47036951 -19.09718091 24.27917814 -18.48480225 22.08609009 C-17.66434143 19.14836964 -16.82308675 16.2174056 -15.9765625 13.28710938 C-15.74739136 12.44337769 -15.51822021 11.599646 -15.28210449 10.73034668 C-15.05543091 9.96121948 -14.82875732 9.19209229 -14.59521484 8.3996582 C-14.40921722 7.74081131 -14.2232196 7.08196442 -14.03158569 6.40315247 C-10.86448879 0.52517244 -6.13540036 -0.06704809 0 0 Z M31.984375 131.51757812 C31.65635895 132.64410797 31.65635895 132.64410797 31.32171631 133.793396 C21.22611487 168.4625249 11.1172914 203.12765183 0.921875 237.76757812 C0.71722626 238.46292915 0.51257751 239.15828018 0.30172729 239.87470245 C-2.18728647 248.3315885 -4.67746187 256.78813226 -7.16811562 265.24453545 C-11.03586449 278.37665348 -14.90157271 291.50937193 -18.765625 304.64257812 C-18.96954865 305.3356456 -19.17347229 306.02871307 -19.38357544 306.74278259 C-26.47003739 330.82806568 -33.52905242 354.92132837 -40.578125 379.01757812 C-48.99034203 407.77314802 -57.41117158 436.52617556 -65.84591675 465.27514648 C-67.02972867 469.31005814 -68.21325666 473.34505289 -69.39651489 477.38012695 C-70.79163764 482.13759664 -72.18739215 486.89488055 -73.58361626 491.65202713 C-74.09306306 493.38810982 -74.6023167 495.1242492 -75.11134529 496.86045456 C-75.81925273 499.27481696 -76.52799076 501.68893438 -77.23681641 504.10302734 C-77.57275708 505.25012712 -77.57275708 505.25012712 -77.91548443 506.42040062 C-79.15107007 510.62695104 -80.41210457 514.82446121 -81.70037842 519.01519775 C-81.97877249 519.92589083 -82.25716656 520.8365839 -82.54399681 521.77487373 C-83.0811896 523.52875029 -83.62290875 525.28124888 -84.1698246 527.03211784 C-84.41134443 527.8223591 -84.65286427 528.61260036 -84.90170288 529.42678833 C-85.1171192 530.1215584 -85.33253551 530.81632847 -85.5544796 531.53215218 C-86.16645354 533.82724599 -86.16645354 533.82724599 -86.015625 537.51757812 C-9.125625 537.51757812 67.764375 537.51757812 146.984375 537.51757812 C144.41697371 527.24797298 141.80197912 517.03200937 138.95703125 506.84179688 C138.57235923 505.45823192 138.1878585 504.07461933 137.80351257 502.69096375 C136.77009486 498.97284232 135.73400273 495.25547123 134.6973114 491.53826141 C133.81265226 488.36489669 132.92957513 485.19109252 132.04645348 482.01729965 C124.76741953 455.85908333 117.44869834 429.71195957 110.12084961 403.56738281 C104.19258123 382.41530098 98.281419 361.25850013 92.38053608 340.09876251 C81.36994509 300.61638277 70.34609604 261.1377313 59.24714661 221.68008423 C56.81772214 213.04295973 54.39145781 204.40496928 51.97167969 195.76513672 C49.74976475 187.83200985 47.52214222 179.90051178 45.28756618 171.97094154 C44.11860512 167.82218537 42.95227379 163.67273426 41.79263306 159.5213623 C40.72281532 155.69192445 39.64566733 151.86462905 38.56259537 148.03891945 C38.16732438 146.6377049 37.77479785 145.23571297 37.38515854 143.83292198 C36.85547179 141.92750183 36.31513507 140.0250516 35.77416992 138.12280273 C35.47492111 137.05775009 35.1756723 135.99269745 34.86735535 134.89537048 C34.23275015 132.35726619 34.23275015 132.35726619 31.984375 131.51757812 Z " fill="#FFFFFF" transform="translate(2762.015625,979.482421875)"/>
<path d="M0 0 C1.15302763 -0.01678296 1.15302763 -0.01678296 2.32934874 -0.03390497 C3.57893456 -0.01410502 3.57893456 -0.01410502 4.85376453 0.00609493 C5.74780155 0.00041168 6.64183856 -0.00527158 7.5629676 -0.01112705 C10.56001588 -0.02404943 13.5557187 -0.00122221 16.55269337 0.02146053 C18.70154065 0.01959665 20.85038699 0.01556038 22.99922657 0.0095129 C28.8410465 -0.0004799 34.68238277 0.02074679 40.52413249 0.04799294 C46.64829272 0.07182727 52.77244338 0.06887814 58.89664173 0.06929684 C69.1956496 0.07392944 79.49447302 0.09758778 89.79341602 0.13376522 C101.66460492 0.17535735 113.53562724 0.19307162 125.40688485 0.19638497 C138.07448476 0.20000164 150.74202548 0.21891562 163.4096005 0.24350524 C167.04139655 0.24970399 170.67318808 0.25335935 174.30498791 0.25653934 C180.04485061 0.26249486 185.78459732 0.27895802 191.5244112 0.3031435 C193.61800773 0.31050887 195.7116188 0.31465053 197.80522823 0.31512356 C214.33854114 0.32247253 230.4626551 1.3148772 246.67110157 4.80832577 C248.17302052 5.12978573 248.17302052 5.12978573 249.70528126 5.45773983 C280.95958751 12.37812646 310.51625004 25.04566354 335.98360157 44.62082577 C337.33325001 45.65336483 337.33325001 45.65336483 338.71016407 46.70676327 C343.89530393 50.7681886 348.81063421 55.08821107 353.67110157 59.53098202 C355.63345671 61.30439418 357.63021566 63.00232822 359.67110157 64.68332577 C363.53407038 67.98163789 366.71247466 71.74796514 369.98360157 75.62082577 C370.79700001 76.53477108 371.61039845 77.44871639 372.44844532 78.39035702 C394.00763171 102.80337034 408.56339553 131.98950555 415.98360157 163.62082577 C416.16432775 164.37235739 416.34505394 165.12388901 416.53125668 165.89819431 C421.7280817 188.67318233 420.55453787 212.26019924 420.48797202 235.46136737 C420.47394882 241.57554147 420.48060078 247.68970101 420.48410511 253.80388546 C420.48679315 264.06070396 420.47345145 274.3174045 420.4501543 284.57419491 C420.42353229 296.37531129 420.42180965 308.17623095 420.43354267 319.9773671 C420.44437844 331.40840392 420.43808947 342.83937067 420.42398739 354.27040195 C420.41827981 359.10035356 420.41826848 363.93025301 420.42305279 368.76020527 C420.42787909 374.46097709 420.41749082 380.16153764 420.39609814 385.8622694 C420.39060694 387.93485394 420.38999276 390.00745911 420.395051 392.08004475 C420.43347961 410.10694877 419.05038606 428.06320271 414.17110157 445.49582577 C413.78317432 446.92402645 413.78317432 446.92402645 413.38741016 448.38107967 C411.08020332 456.66941632 408.36343003 464.70982075 404.98360157 472.62082577 C404.69791309 473.29242733 404.41222462 473.96402889 404.11787891 474.65598202 C396.8943157 491.35876459 387.4245115 506.50345915 375.98360157 520.62082577 C375.31457813 521.49352108 374.6455547 522.36621639 373.95625782 523.26535702 C362.33556861 538.14251576 348.40392517 550.80498197 332.98360157 561.62082577 C332.32489063 562.0864996 331.6661797 562.55217342 330.98750782 563.03195858 C307.40060567 579.50776003 281.29102062 591.03935656 253.42110157 597.99582577 C252.5264922 598.2226202 251.63188282 598.44941463 250.71016407 598.68308163 C228.83037844 603.76477659 206.78110037 604.04652463 184.46271229 603.92500758 C180.35087631 603.90592868 176.23902968 603.90446629 172.12715626 603.90093136 C164.38242085 603.89170068 156.63781635 603.86721206 148.89313793 603.83688289 C140.05842709 603.8030548 131.22370914 603.78678235 122.38894939 603.77179658 C104.25375994 603.74065161 86.11869137 603.68807105 67.98360157 603.62082577 C67.98821054 604.72942298 67.9928195 605.83802019 67.99756813 606.98021126 C68.10849502 633.93691519 68.19069658 660.89358956 68.24266243 687.8504734 C68.26845976 700.88655546 68.30363976 713.92248688 68.36079884 726.95847225 C68.41058667 738.3187375 68.44288145 749.67889366 68.45404404 761.03926498 C68.46057056 767.05626603 68.47594196 773.07295498 68.51225185 779.08985615 C68.54613803 784.75087911 68.5566693 790.41146082 68.54913998 796.07257557 C68.55051781 798.15231122 68.56049391 800.23206132 68.57962894 802.3117094 C68.60445143 805.14813742 68.59854612 807.98289237 68.58487415 810.81935787 C68.59943836 811.6452385 68.61400257 812.47111912 68.62900811 813.32202643 C68.5735499 817.56899543 68.34067993 819.16205804 65.64047241 822.63123512 C62.31719596 825.11986183 60.47100445 825.25369835 56.3449297 825.26779842 C55.6987418 825.27656002 55.0525539 825.28532162 54.38678455 825.29434872 C52.26211296 825.31626019 50.1395423 825.30182326 48.01485157 825.28488827 C46.5318153 825.28825887 45.04878173 825.29311353 43.56575489 825.29938412 C40.46209301 825.30674412 37.35915209 825.29607947 34.25557423 825.27268124 C30.28391351 825.24419232 26.31394211 825.26060121 22.34234333 825.29054356 C19.2812634 825.30864113 16.22058178 825.3028476 13.15948963 825.28990459 C11.69550849 825.2865773 10.23149079 825.29063394 8.76755238 825.30230236 C6.71815682 825.31505375 4.67146809 825.29558325 2.62227345 825.26779842 C0.87617786 825.26183147 0.87617786 825.26183147 -0.90519238 825.25574398 C-4.04365709 824.61526297 -5.77506043 823.87117355 -7.97073464 821.52498257 C-10.45208297 817.00644004 -9.69098622 811.31350926 -9.64560413 806.30701351 C-9.65081956 804.91447118 -9.65822562 803.52193564 -9.66762596 802.12941527 C-9.6871651 798.28606101 -9.67541164 794.44333152 -9.6587362 790.599987 C-9.64608995 786.42515166 -9.66233735 782.25041455 -9.67495286 778.07559299 C-9.69304535 770.75317157 -9.69244278 763.43093431 -9.67971706 756.1085043 C-9.6608451 745.22003754 -9.67045216 734.33172684 -9.6857586 723.44326121 C-9.71212329 703.99926462 -9.70979107 684.55535003 -9.69536404 665.11134559 C-9.68280047 648.09588112 -9.6794961 631.08044675 -9.68547726 614.0649786 C-9.68585918 612.93756164 -9.68624111 611.81014469 -9.68663461 610.64856358 C-9.68819123 606.07234123 -9.68978322 601.4961189 -9.69143343 596.91989658 C-9.70673832 553.96622929 -9.69284546 511.01261432 -9.66594894 468.0589551 C-9.64221981 429.87317042 -9.64434291 391.6874691 -9.6682539 353.50168514 C-9.6950104 310.62802443 -9.70565302 267.75440997 -9.69019258 224.88074207 C-9.68858892 220.31271904 -9.68702473 215.74469599 -9.68547726 211.17667294 C-9.68508187 210.05185806 -9.68468648 208.92704319 -9.68427911 207.76814301 C-9.67858486 190.760793 -9.68525594 173.75347634 -9.69787502 156.74613094 C-9.7121476 137.41357052 -9.70864799 118.08110514 -9.6814713 98.74855661 C-9.66675315 87.92053214 -9.66588406 77.09271332 -9.68470218 66.26469404 C-9.69587511 59.04081593 -9.68900743 51.81710344 -9.66717833 44.59324997 C-9.65523213 40.47138434 -9.65132441 36.34992864 -9.66920824 32.22807527 C-9.68529652 28.48203604 -9.67859255 24.73677238 -9.65330494 20.99079028 C-9.64585261 19.00098156 -9.66304006 17.01112779 -9.68107635 15.02138686 C-9.57909155 5.43397456 -9.57909155 5.43397456 -6.72809798 2.32751411 C-4.16246384 0.71275636 -2.96780667 -0.00366407 0 0 Z M67.98360157 74.62082577 C67.98360157 223.78082577 67.98360157 372.94082577 67.98360157 526.62082577 C199.15243719 535.2468056 199.15243719 535.2468056 305.98360157 480.62082577 C306.61266407 480.05492733 307.24172657 479.48902889 307.88985157 478.90598202 C321.09443072 466.666832 330.55822052 449.48643548 336.35860157 432.62082577 C336.69855152 431.64569027 336.69855152 431.64569027 337.04536915 430.65085506 C341.78790866 415.82038644 342.42356709 400.91251934 342.37178516 385.48386288 C342.37586073 383.41866944 342.38120809 381.35347819 342.38771534 379.28829098 C342.40127677 373.73049397 342.39613712 368.17286588 342.38657808 362.61506629 C342.37892411 356.76896449 342.3860428 350.92287608 342.39073658 345.07677364 C342.39617711 335.26485279 342.38904693 325.45299994 342.37471485 315.64108944 C342.35838712 304.3330805 342.36368471 293.02523385 342.38019407 281.71722883 C342.39385218 271.96808269 342.39570766 262.21898511 342.38787806 252.46983248 C342.38322584 246.66467225 342.38250877 240.85958807 342.39248753 235.05443287 C342.40121831 229.59510118 342.39502472 224.13597675 342.37780476 218.67666721 C342.37387253 216.68541843 342.37491718 214.6941519 342.38159275 212.70291042 C342.49675294 174.83110412 328.77321332 144.21382705 302.67110157 116.99582577 C240.03246699 56.14367631 148.63409852 74.62082577 67.98360157 74.62082577 Z " fill="#FFFFFF" transform="translate(2065.0163984298706,979.3791742324829)"/>
<path d="M0 0 C0.64574982 -0.0065712 1.29149963 -0.0131424 1.95681763 -0.01991272 C4.09710809 -0.03964753 6.23732837 -0.051309 8.37768555 -0.0612793 C9.47434571 -0.06739259 9.47434571 -0.06739259 10.59316063 -0.07362938 C14.46330864 -0.09449155 18.33342119 -0.10879222 22.20361328 -0.11816406 C26.19856905 -0.12922508 30.19296727 -0.16362023 34.18772602 -0.20333576 C37.26156134 -0.22949875 40.3352638 -0.2378556 43.40920067 -0.24144554 C44.88159129 -0.2463129 46.35397592 -0.25793129 47.82625771 -0.27648354 C49.88982749 -0.30086884 51.95195483 -0.29991224 54.015625 -0.29296875 C55.7752935 -0.30176811 55.7752935 -0.30176811 57.57051086 -0.31074524 C61.46444294 0.2957753 63.01224958 1.31357042 65.7019043 4.17700195 C67.03262329 7.11401367 67.03262329 7.11401367 68.04418945 10.60668945 C68.23625284 11.25163833 68.42831623 11.8965872 68.62619972 12.56107998 C69.26457725 14.72018578 69.87756123 16.88568104 70.4909668 19.05200195 C70.94569946 20.60836773 71.40202071 22.1642701 71.85980225 23.71974182 C72.8468757 27.08622194 73.82268836 30.45569404 74.78997803 33.82791138 C76.34977318 39.26563612 77.93368139 44.69616016 79.52075195 50.12597656 C81.77746925 57.85493465 84.02327482 65.58698808 86.26245117 73.32104492 C89.6060741 84.86556861 92.98452521 96.39970922 96.3737793 107.9309082 C96.78640329 109.33500505 96.78640329 109.33500505 97.20736313 110.7674675 C98.32227345 114.56125185 99.43726525 118.35501221 100.5525341 122.14869118 C102.53444222 128.89099768 104.51287061 135.63431859 106.48950195 142.37817383 C113.9253051 167.74572425 121.39732731 193.10235893 128.8956871 218.45148468 C138.05395925 249.41216019 147.17810098 280.38262585 156.2644043 311.36450195 C156.54511528 312.32163715 156.82582626 313.27877235 157.11504364 314.26491165 C158.52830821 319.08374816 159.94152127 323.90259978 161.35473633 328.72145081 C161.77258896 330.14625354 161.77258896 330.14625354 162.19888306 331.59984016 C162.7604983 333.51485964 163.32210313 335.42988217 163.88369751 337.34490776 C170.02066737 358.27127337 176.17201372 379.19340125 182.3269043 400.11450195 C182.8442498 401.873077 183.36159395 403.63165244 183.87893677 405.39022827 C185.9410821 412.39989058 188.00331715 419.4095265 190.0657196 426.41911316 C193.69253644 438.74575779 197.31859 451.07262673 200.9440918 463.3996582 C201.20230335 464.27759663 201.46051491 465.15553505 201.72655106 466.06007767 C203.81106083 473.14758159 205.89552618 480.23509858 207.9799881 487.32261658 C209.79352226 493.48892837 211.60707668 499.6552342 213.4206543 505.8215332 C213.67748363 506.69477612 213.93431297 507.56801903 214.19892502 508.46772385 C217.93663963 521.1762024 221.67517864 533.88443824 225.41415215 546.59254646 C227.84357444 554.84981448 230.27280318 563.10713945 232.7019043 571.36450195 C232.9628828 572.25165768 233.22386131 573.1388134 233.49274826 574.05285263 C242.91651672 606.08817381 252.32004211 638.12938158 261.7019043 670.17700195 C271.37165716 637.58286208 280.9512338 604.96397359 290.3894043 572.30200195 C290.61782139 571.51157753 290.84623848 570.72115311 291.0815773 569.90677643 C291.54689104 568.29657715 292.0121992 566.68637626 292.47750187 565.07617378 C293.65379004 561.00559479 294.83015409 556.93503773 296.0065918 552.86450195 C296.24105955 552.05317684 296.47552731 551.24185173 296.71710014 550.40594101 C301.88800741 532.51505683 307.09073254 514.63348225 312.30007553 496.75375748 C313.49638601 492.64771982 314.6925184 488.54163028 315.88867188 484.43554688 C316.2465628 483.2070006 316.2465628 483.2070006 316.61168385 481.95363522 C317.09554573 480.29265677 317.57940478 478.63167749 318.06326103 476.9706974 C318.54940151 475.30189006 319.03555291 473.6330859 319.52171516 471.9642849 C325.38139012 451.85000038 331.22974236 431.73242692 337.0769043 411.61450195 C337.33549225 410.72480587 337.5940802 409.83510979 337.86050415 408.91845322 C340.22054521 400.79850099 342.58054659 392.67853724 344.94046021 384.55854797 C348.40318665 372.64419492 351.86705718 360.73017494 355.33162308 348.81635666 C357.72604443 340.58245189 360.12027867 332.34849271 362.5144043 324.11450195 C362.77606888 323.21457268 363.03773346 322.3146434 363.30732727 321.38744354 C370.49259892 296.67495492 377.66653321 271.95921622 384.8269043 247.23950195 C392.5424993 220.60299087 400.28573455 193.97459438 408.04209328 167.34992599 C409.25299175 163.19334847 410.46380518 159.03674617 411.67456055 154.88012695 C411.91703144 154.04771736 412.15950233 153.21530777 412.40932083 152.35767365 C416.91886215 136.87523267 421.41809333 121.38980586 425.91398621 105.90339661 C428.6134275 96.6056908 431.31529528 87.30870526 434.02392578 78.01367188 C434.79730615 75.35927427 435.57065975 72.70486887 436.3439846 70.05045509 C436.8456864 68.32842116 437.34744692 66.60640433 437.84926796 64.88440514 C440.59814475 55.44932572 443.32967202 46.00991443 446.01400757 36.55625916 C447.21943509 32.31444432 448.43649873 28.07602931 449.65594482 23.83822632 C450.42104812 21.16001275 451.1675154 18.47709173 451.91333008 15.79345703 C452.35735869 14.25171117 452.80242137 12.71026255 453.2487793 11.16918945 C453.51738266 10.16662865 453.51738266 10.16662865 453.79141235 9.14381409 C455.12264452 4.66344697 456.81274038 2.70159037 460.7019043 0.17700195 C463.81311035 -0.33093262 463.81311035 -0.33093262 467.34057617 -0.34057617 C467.98676407 -0.34758545 468.63295197 -0.35459473 469.29872131 -0.36181641 C471.42314321 -0.37934352 473.54622016 -0.36779441 475.6706543 -0.35424805 C477.15368911 -0.35694453 478.6367222 -0.36082825 480.11975098 -0.36584473 C483.22331627 -0.37173254 486.32642012 -0.36320061 489.42993164 -0.34448242 C493.40138226 -0.32169249 497.37175156 -0.33481953 501.34316254 -0.35877228 C504.40419614 -0.37325012 507.46497481 -0.36861534 510.52601624 -0.35826111 C511.98999663 -0.35559927 513.45400043 -0.35884449 514.91795349 -0.36817932 C516.9670003 -0.37837869 519.01431419 -0.36280103 521.06323242 -0.34057617 C522.22729614 -0.3373938 523.39135986 -0.33421143 524.59069824 -0.33093262 C528.39126787 0.28954724 530.00305822 1.46891376 532.7019043 4.17700195 C535.49278186 8.45769909 534.67138614 12.37116923 533.7019043 17.17700195 C532.23686629 22.94037237 530.56057543 28.63547008 528.8737793 34.3371582 C528.3719514 36.05371197 527.87079806 37.77046307 527.37026978 39.48739624 C526.02070092 44.11004531 524.66206105 48.72998322 523.30181122 53.34949875 C521.86923568 58.22079439 520.44536167 63.09463175 519.02075195 67.96826172 C516.69553211 75.91956528 514.36590355 83.86956317 512.03295898 91.81860352 C509.07112628 101.91162763 506.1210063 112.00802528 503.1784668 122.10668945 C502.96411484 122.84226767 502.74976288 123.57784588 502.52891541 124.33571434 C501.67587596 127.263102 500.82288603 130.19050406 499.97003174 133.11794567 C498.4877115 138.20578919 497.00393653 143.29320678 495.51928711 148.38037109 C495.30729172 149.10677827 495.09529633 149.83318544 494.87687683 150.58160496 C494.44757702 152.05259483 494.01827607 153.52358438 493.588974 154.99457359 C488.0278157 174.05060036 482.47903024 193.11022389 476.93151855 212.17022705 C467.16203201 245.73577681 457.37922857 279.29742401 447.58807373 312.85665894 C444.5447976 323.28751566 441.50205848 333.7185289 438.4597168 344.1496582 C438.24292141 344.89297331 438.02612602 345.63628841 437.80276108 346.40212822 C436.70730622 350.15806748 435.61186033 353.91400935 434.51641846 357.66995239 C432.54700592 364.42246393 430.57751403 371.17495233 428.60802841 377.92744255 C427.51431715 381.67729474 426.42061098 385.42714842 425.3269043 389.17700195 C424.88940432 390.67700196 424.45190432 392.17700196 424.0144043 393.67700195 C423.68956055 394.79075195 423.68956055 394.79075195 423.3581543 395.92700195 C401.7019043 470.17700195 380.0456543 544.42700195 358.3894043 618.67700195 C358.17284054 619.41950636 357.95627678 620.16201077 357.73315048 620.9270153 C357.29566339 622.42697086 356.85817611 623.92692635 356.42068863 625.42688179 C355.32673949 629.17756137 354.23279375 632.92824195 353.13885498 636.67892456 C351.17248656 643.42081058 349.20609479 650.16268978 347.23957443 656.90453148 C346.14887576 660.64378752 345.05819723 664.38304944 343.9675293 668.12231445 C343.75145271 668.86311375 343.53537613 669.60391304 343.31275177 670.3671608 C340.87872282 678.71212962 338.44512679 687.05722444 336.01245117 695.40258789 C335.78967813 696.16681627 335.5669051 696.93104465 335.33738136 697.71843147 C334.437174 700.80664981 333.53697678 703.89487111 332.63682175 706.98310471 C330.20444573 715.32795939 327.77122777 723.67256646 325.33520508 732.01635742 C325.01435031 733.11539115 325.01435031 733.11539115 324.68701363 734.23662758 C322.89472091 740.37581006 322.89472091 740.37581006 322.11842728 743.03447342 C319.59019379 751.69383807 317.06784563 760.35487296 314.55525208 769.01878929 C312.96061408 774.51718936 311.36241611 780.01454549 309.76148987 785.51111794 C308.83479561 788.6936084 307.91079268 791.87684074 306.99060059 795.06121826 C305.99073406 798.52062618 304.98387241 801.97792422 303.9753418 805.43481445 C303.68571564 806.44368713 303.39608948 807.45255981 303.09768677 808.49200439 C299.41890172 821.032337 299.41890172 821.032337 294.7019043 824.17700195 C291.79324341 824.44442749 291.79324341 824.44442749 288.19848633 824.4675293 C287.21501221 824.47760513 287.21501221 824.47760513 286.21166992 824.48788452 C284.0442751 824.50688148 281.87718969 824.5107896 279.7097168 824.51293945 C278.20140455 824.51936659 276.69309356 824.52609489 275.18478394 824.53311157 C272.02232982 824.54508882 268.85998497 824.54879198 265.69750977 824.54760742 C261.64985745 824.54740429 257.6029077 824.57469781 253.55542183 824.60915184 C250.43953245 824.6314172 247.32381219 824.63544508 244.20785141 824.63438797 C242.71593684 824.63674482 241.22401767 824.64557318 239.73218155 824.6610527 C237.64232833 824.68070548 235.55399026 824.67487939 233.46411133 824.6628418 C231.68231979 824.66711685 231.68231979 824.66711685 229.86453247 824.67147827 C225.93882635 824.05769486 224.40062928 823.08059899 221.7019043 820.17700195 C220.32408142 817.04725647 220.32408142 817.04725647 219.24853516 813.29052734 C219.04539483 812.59942966 218.84225451 811.90833197 218.63295841 811.19629192 C217.96068805 808.89359707 217.31385934 806.58453798 216.66674805 804.2746582 C216.19255017 802.63189611 215.71676453 800.98959162 215.23950195 799.34771729 C213.9543558 794.91058204 212.69087028 790.46753722 211.4310112 786.02316666 C210.09954769 781.34111048 208.74763426 776.6649693 207.39746094 771.98828125 C205.1961925 764.35539992 203.00554634 756.71955308 200.82299805 749.08129883 C198.06590792 739.43464326 195.28298878 729.79570483 192.4831543 720.16137695 C192.28000359 719.46213671 192.07685287 718.76289646 191.86754608 718.04246712 C191.05824252 715.25688526 190.24887186 712.47132295 189.43923569 709.68583775 C187.40921754 702.70064981 185.38736074 695.71310542 183.36537933 688.72558784 C177.72768938 669.24495511 172.06039829 649.77296121 166.3894043 630.30200195 C165.90477488 628.63799035 165.42014557 626.97397871 164.93551636 625.30996704 C162.98765879 618.62199359 161.03965157 611.93406374 159.09141541 605.24620056 C155.70666103 593.62707446 152.32298422 582.00763508 148.94018555 570.38793945 C148.70338892 569.57456179 148.46659229 568.76118412 148.22262001 567.92315865 C147.02737333 563.8175621 145.83214652 559.71195977 144.63693237 555.60635376 C142.23940424 547.37076371 139.8417575 539.1352082 137.4440918 530.8996582 C137.20664434 530.0840637 136.96919689 529.2684692 136.72455406 528.42815971 C133.39402905 516.98837212 130.06299715 505.54873222 126.73163605 494.10918808 C116.28260025 458.22798464 105.84166984 422.3444397 95.41157532 386.45772552 C87.63949247 359.7165282 79.86218854 332.976859 72.0769043 306.23950195 C71.84113426 305.42977558 71.60536423 304.62004921 71.36244965 303.78578568 C67.80925284 291.58276507 64.255629 279.37986883 60.7019043 267.17700195 C56.90999185 254.15624018 53.11824063 241.13543149 49.3269043 228.11450195 C49.09129539 227.30533955 48.85568649 226.49617714 48.61293793 225.66249466 C41.06435438 199.73780611 33.52407307 173.81071096 25.9881897 147.88232803 C17.78165843 119.64659701 9.57287013 91.41152482 1.35546875 63.17895508 C0.34568233 59.70960742 -0.66391591 56.2402051 -1.67333984 52.77075195 C-2.84828835 48.73243542 -4.02364735 44.6942386 -5.19932938 40.65613556 C-5.62705873 39.18679051 -6.05465342 37.71740624 -6.48209763 36.24797821 C-6.88018456 34.87954608 -7.27848143 33.511175 -7.67701149 32.14287186 C-8.22155832 30.27282163 -8.76506675 28.40246912 -9.30853271 26.53210449 C-10.42695192 22.74011637 -11.59842579 18.96631599 -12.80422974 15.20123291 C-13.60938529 11.90110511 -13.24652492 9.40166129 -12.2980957 6.17700195 C-8.57711068 0.65554031 -6.48712036 0.05454785 0 0 Z " fill="#FFFFFF" transform="translate(878.298095703125,979.822998046875)"/>
</svg>
