<svg width="705" height="484" viewBox="0 0 705 484" fill="none" xmlns="http://www.w3.org/2000/svg">
<path d="M168.164 481.874C89.2798 470.209 27.6948 435.567 8.66579 392.088C-3.44362 364.516 -2.75165 316.441 10.0497 280.385C26.6569 233.371 69.2128 163.026 101.735 128.031L120.072 108.589L110.731 124.496C77.1704 181.054 40.1502 288.869 40.1502 329.52C40.1502 353.204 51.9137 380.423 67.4829 394.209C78.9003 403.753 93.4316 406.934 97.2374 400.218C101.043 393.855 109.001 396.683 134.258 414.004C183.041 447.232 243.934 464.2 315.207 464.2C338.388 464.2 361.568 463.493 367.104 462.079C389.939 457.484 360.184 468.088 330.776 474.805C298.254 482.581 202.07 486.823 168.164 481.874ZM201.032 463.493C169.202 454.302 130.452 434.86 116.266 421.428C104.849 410.469 98.9673 407.995 98.9673 414.358C98.9673 419.66 79.9383 418.6 66.4449 412.944C35.3065 399.511 18.6993 346.134 29.7707 294.171C37.0364 260.236 37.0364 260.236 33.2306 265.892C26.6569 275.79 12.4716 326.339 12.4716 339.771C12.4716 379.009 37.3824 416.479 77.8624 436.981C115.921 456.777 166.78 469.856 204.492 470.209L225.251 470.563L201.032 463.493Z" fill="#085362"/>
<path d="M186.011 367.348C136.536 361.339 110.933 357.097 107.473 354.976C101.937 351.441 107.127 311.85 116.815 280.036C127.194 246.101 150.375 205.45 174.248 178.938C276.659 64.4073 438.579 49.5608 558.635 143.589C593.925 171.515 626.102 217.822 622.642 236.557C619.528 253.878 603.613 287.46 591.849 301.953C566.593 332.353 537.184 338.716 410.9 341.543C324.058 343.311 296.38 346.492 256.938 358.865C224.069 369.116 211.614 370.883 186.011 367.348ZM246.558 328.818C258.322 322.455 296.38 317.506 353.813 314.678C387.027 312.911 432.697 310.083 455.186 307.608C525.075 300.892 571.782 284.632 571.782 267.311C571.782 262.715 577.318 248.222 584.238 235.143C594.617 215.348 596.001 209.692 592.887 204.389C590.811 200.854 589.081 195.552 589.081 192.724C589.081 189.896 587.006 187.422 584.93 187.422C582.508 187.422 570.744 177.878 558.635 166.212C546.526 154.547 536.146 145.003 535.454 145.003C534.762 145.003 525.075 139.347 513.657 132.631C461.068 100.463 391.525 88.0912 336.514 100.817C322.329 104.352 305.375 107.887 299.494 108.594C293.266 109.654 288.076 111.422 288.076 112.835C288.076 114.249 279.773 119.198 270.085 124.147C260.052 128.743 248.634 135.459 245.174 138.994C241.369 142.175 236.179 145.003 233.757 145.003C231.335 145.003 229.259 146.771 229.259 148.538C229.259 150.659 226.837 153.133 223.723 154.547C220.61 155.608 213.344 161.971 207.116 168.333C200.889 175.05 193.969 180.352 191.547 180.352C189.471 180.352 187.741 182.473 187.741 185.301C187.741 188.129 183.935 193.431 179.092 197.32C174.248 201.208 170.442 205.45 170.442 206.51C170.442 207.571 164.906 217.469 157.987 228.427C141.725 254.231 129.962 282.157 124.08 307.608L119.237 328.111L159.717 334.12C181.859 337.302 201.58 340.483 203.31 340.837C207.116 341.897 238.255 333.413 246.558 328.818Z" fill="#085362"/>
<path d="M624.023 339.423C648.934 274.028 662.427 214.641 662.427 169.748C662.081 131.925 654.816 112.129 633.019 94.1012C616.066 79.9616 612.606 78.9011 606.378 86.6779C599.458 95.1616 592.885 93.0407 575.24 76.7802C554.135 57.3382 516.077 38.2497 478.364 27.9985C455.53 21.6357 435.463 19.5148 388.409 18.1008L327.862 15.9799L359 9.97053C405.708 0.779791 429.927 -1.69464 429.927 3.25422C429.927 5.37516 434.771 7.14261 440.652 7.14261C471.099 7.14261 564.86 39.3102 564.86 49.5614C564.86 51.6824 567.282 53.0963 570.05 53.0963C572.818 53.0963 575.24 54.8638 575.24 56.6312C575.24 58.7522 577.316 60.1661 580.083 60.1661C582.505 60.1661 586.657 62.6405 589.079 65.4685C591.847 69.0034 599.804 70.7708 613.298 70.7708C631.635 70.7708 634.403 71.8313 648.934 84.9104C671.769 105.766 676.613 122.734 674.883 180.706C674.537 205.804 674.191 226.306 674.537 226.306C674.883 226.306 678.689 214.641 682.84 200.855C695.642 157.376 693.22 121.673 674.883 94.8081C671.423 89.8593 668.655 81.3755 668.655 76.4267C668.655 69.3569 666.925 67.2359 661.389 67.2359C657.238 67.2359 646.166 62.6405 637.171 56.6312C627.829 50.9754 614.336 43.5521 607.416 40.3707C585.965 30.8264 537.182 18.1008 514.001 15.6264C496.01 13.5054 492.204 12.0915 492.204 6.78912C492.204 -1.69464 498.085 -1.69464 540.987 5.72865C622.293 19.8683 675.921 53.0963 696.68 101.524C712.941 139.348 703.253 208.985 673.499 269.432C661.735 293.47 636.479 334.121 623.677 350.028C616.758 358.865 616.758 358.512 624.023 339.423Z" fill="#085362"/>
<path d="M150.863 476.219C119.724 469.856 80.6282 456.07 78.8983 450.768C76.8224 443.698 94.1216 445.466 124.222 454.656C139.099 459.605 159.512 464.554 169.892 465.615C185.461 467.735 188.921 469.503 188.921 474.805C188.921 482.582 183.385 482.936 150.863 476.219Z" fill="#045A6C"/>
<path d="M238.39 472.239C180.957 459.867 164.35 453.504 164.35 443.606V435.476L193.066 445.727C231.124 459.16 285.098 467.643 323.502 465.876C359.83 464.462 357.062 467.643 314.852 475.067C278.178 481.783 285.79 482.137 238.39 472.239Z" fill="#045A6C"/>
<path d="M44.648 433.8L34.9604 425.316L48.1078 424.963C59.5252 424.963 60.9092 426.023 60.9092 433.8C60.9092 444.758 57.1034 445.112 44.648 433.8Z" fill="#045A6C"/>
<path d="M130.105 432.032C130.105 430.265 127.683 428.497 124.915 428.497C122.147 428.497 119.726 425.316 119.726 421.427C119.726 415.065 117.996 414.711 93.7768 416.832L67.8281 418.953V409.409C67.8281 399.511 68.8661 399.157 79.9375 403.399C84.4353 405.52 89.971 404.46 96.1987 400.925C104.502 395.976 106.232 395.976 113.498 401.278C117.996 404.813 128.721 412.59 137.717 418.953C146.712 424.962 154.324 431.325 154.324 433.093C154.324 434.507 148.788 435.567 142.214 435.567C135.641 435.567 130.105 434.153 130.105 432.032Z" fill="#045A6C"/>
<path d="M21.8119 410.116C12.8163 398.097 2.09082 370.525 2.09082 358.86C2.09082 356.385 4.85868 354.264 8.31851 354.264C12.4703 354.264 15.9301 360.273 20.7739 375.474C24.2337 386.785 28.3855 396.683 30.4614 397.39C32.1913 398.097 33.2293 404.106 32.5373 410.823L31.4994 423.195L21.8119 410.116Z" fill="#045A6C"/>
<path d="M40.1494 382.544C40.1494 375.827 38.4195 371.939 35.3056 371.939C30.8078 371.939 26.3101 357.446 26.3101 341.539C26.3101 326.339 35.6516 332.348 39.8034 350.023C42.2253 359.213 47.761 372.646 52.6048 380.069L60.9084 393.148H50.5289C41.1873 393.148 40.1494 392.088 40.1494 382.544Z" fill="#045A6C"/>
<path d="M2.09082 323.865C2.09082 310.785 10.0484 287.102 14.5462 287.102C19.736 287.102 20.4279 295.585 17.3141 316.441C15.5842 325.985 13.5083 329.52 8.6645 329.52C4.85868 329.52 2.09082 327.046 2.09082 323.865Z" fill="#045A6C"/>
<path d="M26.31 316.441C26.31 310.785 28.7319 295.585 31.4998 281.799C37.7275 252.459 37.3815 255.287 33.2297 255.287C31.4998 255.287 29.7699 260.943 29.7699 267.659C29.7699 278.617 28.7319 280.031 21.1203 280.031H12.4707L18.0064 266.952C21.1203 259.529 24.5801 251.045 25.6181 248.217C33.2297 229.129 104.848 118.486 107.616 121.668C108.308 122.375 99.6584 141.463 88.587 164.44C68.5199 204.738 48.1069 264.478 40.1493 305.836C37.3815 318.915 34.6136 325.985 31.1538 325.985C28.0399 325.985 26.31 322.45 26.31 316.441Z" fill="#045A6C"/>
<path d="M192.929 351.796C191.199 351.089 171.132 347.908 148.989 344.373C108.855 338.717 108.163 338.363 108.163 329.173C108.163 314.68 111.969 304.075 117.159 304.075C119.927 304.075 122.002 307.256 122.002 310.791C122.002 318.568 123.732 318.921 173.9 325.638C205.73 329.88 207.46 329.526 233.063 320.689C265.585 309.024 293.264 304.782 357.271 300.893C385.641 299.126 427.505 293.824 454.146 288.521C479.749 283.219 509.157 277.21 519.191 275.442C534.76 272.261 538.912 269.786 543.41 260.949C546.87 254.94 556.211 237.972 564.861 223.126C578.7 199.442 580.43 193.786 579.392 180L578.008 164.446L585.62 171.516C590.117 175.404 598.075 185.656 603.265 194.139L612.952 209.693L597.729 239.74C589.079 256.354 582.16 273.675 582.16 277.917C582.16 283.219 578.008 288.168 569.358 293.47C540.642 310.791 483.901 319.628 364.19 325.284C297.762 328.466 281.847 330.94 242.404 344.373C218.532 352.856 202.27 354.977 192.929 351.796Z" fill="#045A6C"/>
<path d="M628.521 333.768C642.36 299.126 665.195 213.581 665.195 196.613C665.195 195.553 667.617 194.493 670.385 194.493C673.845 194.493 675.575 198.381 675.921 206.158C676.267 217.116 676.267 217.116 681.11 201.562C683.878 192.725 687.338 178.232 688.376 169.041C690.106 155.255 691.49 152.074 697.372 152.074C703.599 152.074 703.945 153.841 701.523 172.223C696.68 211.107 678.689 257.767 647.896 311.144C633.711 335.535 622.985 347.907 628.521 333.768Z" fill="#045A6C"/>
<path d="M116.466 285.693C119.234 270.847 142.069 222.772 146.221 222.772C151.757 222.772 150.027 242.567 143.799 256.354C140.685 263.07 136.879 268.726 135.495 268.726C134.457 268.726 132.382 275.088 130.998 282.865C129.268 294.177 127.538 297.005 121.656 297.005C115.082 297.005 114.39 295.591 116.466 285.693Z" fill="#045A6C"/>
<path d="M156.254 204.037C161.79 195.553 173.9 181.06 183.241 171.516C199.502 154.195 199.848 154.195 200.886 163.385C202.27 173.99 192.583 187.423 183.587 187.423C179.089 187.423 177.359 190.251 177.359 196.26C177.359 201.209 174.938 206.158 172.17 207.218C169.402 208.632 166.98 211.46 166.98 214.288C166.98 217.469 163.174 219.237 156.6 219.237H145.875L156.254 204.037Z" fill="#045A6C"/>
<path d="M665.195 165.153C665.195 132.985 657.237 112.483 638.554 95.515C621.601 80.315 612.26 78.194 602.226 87.0313C597.382 91.9801 595.306 91.9801 590.809 88.4452C583.543 82.4359 584.235 77.8405 592.539 77.8405C596.344 77.8405 599.458 75.3661 599.458 72.5382C599.458 68.6498 603.61 67.2358 615.027 67.2358C623.677 67.2358 630.597 69.0033 630.597 70.7707C630.597 72.8917 633.019 74.3056 635.786 74.3056C638.554 74.3056 640.976 76.4266 640.976 79.2545C640.976 82.0824 644.436 84.9103 648.934 85.6173C655.161 86.3243 656.891 89.1522 657.583 100.11C658.275 110.008 660.351 113.19 664.849 113.19C672.807 113.19 674.882 120.613 677.65 158.436C680.072 186.362 679.726 187.422 672.461 187.422C665.887 187.422 665.195 185.655 665.195 165.153Z" fill="#045A6C"/>
<path d="M551.021 157.376C551.021 154.548 547.908 152.073 544.102 152.073C540.296 152.073 536.144 149.599 535.106 146.771C533.722 143.943 530.954 141.469 528.187 141.469C525.419 141.469 523.343 138.994 523.343 136.166C523.343 133.338 520.229 130.864 516.423 130.864C512.963 130.864 504.314 128.036 497.394 124.855C488.744 120.613 485.285 116.724 485.285 110.715C485.285 102.585 485.631 102.585 497.74 107.887C515.731 115.31 546.87 135.813 563.131 149.952L576.97 162.324L564.169 162.678C554.827 162.678 551.021 161.264 551.021 157.376Z" fill="#045A6C"/>
<path d="M215.417 143.59C219.915 137.934 251.054 116.725 254.513 116.725C255.897 116.725 256.935 120.613 256.935 125.562C256.935 132.986 255.205 134.4 246.556 134.4C238.598 134.4 236.176 135.814 236.176 141.469C236.176 147.125 233.754 148.539 223.721 148.539C212.995 148.539 211.611 147.832 215.417 143.59Z" fill="#045A6C"/>
<path d="M687.684 127.33C686.3 115.664 683.878 106.12 682.148 106.12C680.418 106.12 679.034 103.646 679.034 100.818C679.034 97.9899 677.651 95.5155 675.575 95.5155C673.845 95.5155 672.115 93.3945 672.115 90.5666C672.115 87.7387 669.693 84.9108 666.925 83.4968C664.157 82.4363 661.735 78.1944 661.735 74.3061C661.735 69.7107 659.313 67.2363 654.816 67.2363C649.28 67.2363 647.896 64.7618 647.896 56.6316V46.0269L658.621 52.7432C678.342 65.1153 698.064 100.464 701.869 131.218C703.945 147.125 703.599 148.539 697.026 148.539C691.144 148.539 689.76 145.358 687.684 127.33Z" fill="#045A6C"/>
<path d="M260.395 116.725C260.395 113.897 284.614 99.0508 289.804 99.0508C294.301 99.0508 290.842 116.018 285.998 118.139C277.348 121.321 260.395 120.614 260.395 116.725Z" fill="#045A6C"/>
<path d="M445.495 104.353C437.884 101.526 427.504 99.4046 422.314 99.4046C415.049 99.0511 412.627 97.2837 412.627 91.6278C412.627 85.265 414.011 84.558 429.234 87.0325C451.723 90.2139 479.402 100.112 481.132 105.414C482.861 111.07 464.178 110.363 445.495 104.353Z" fill="#045A6C"/>
<path d="M298.453 101.171C298.453 96.2226 313.33 91.2737 342.738 86.6784C355.54 84.5574 357.27 85.2644 357.27 90.9202C357.27 96.2226 352.772 98.3435 334.781 101.878C306.064 107.534 298.453 107.181 298.453 101.171Z" fill="#045A6C"/>
<path d="M558.979 62.6411C544.447 52.7434 544.793 49.562 559.671 49.562C570.742 49.562 571.78 50.269 571.78 60.1667C571.78 66.176 571.434 70.7714 571.088 70.4179C570.396 70.4179 564.86 66.883 558.979 62.6411Z" fill="#045A6C"/>
<path d="M617.795 47.0873C615.373 46.3803 613.297 43.1989 613.297 40.371C613.297 37.1896 609.492 35.4221 601.188 35.4221C591.5 35.4221 589.079 34.0082 589.079 28.7058C589.079 24.8174 590.117 20.929 591.846 20.2221C595.306 18.1011 644.436 42.1384 644.436 46.3803C644.436 49.5617 625.061 50.2687 617.795 47.0873Z" fill="#045A6C"/>
<path d="M520.92 40.7242C506.043 34.3614 506.389 28.3521 521.612 28.3521C532.338 28.3521 533.722 29.4125 533.722 37.1893C533.722 42.1382 533.376 46.0266 533.03 46.0266C532.338 45.6731 526.802 43.5521 520.92 40.7242Z" fill="#045A6C"/>
<path d="M467.986 24.1106C439.962 17.0408 431.658 15.9803 381.49 14.5663C354.85 13.5059 351.044 12.7989 360.732 10.3245C385.296 4.31512 441 -0.987228 443.421 2.54767C444.459 4.66861 451.725 7.14304 459.337 8.557C466.948 9.97096 475.944 11.7384 479.404 12.7989C483.555 14.2128 485.285 12.7989 485.285 7.49653C485.285 2.90116 487.361 0.0732422 491.513 0.0732422C512.618 0.426732 522.306 13.8594 501.893 14.5663C493.589 14.9198 492.551 15.6268 498.433 16.6873C503.276 17.7477 506.044 20.9292 506.044 25.171C506.044 33.3013 502.239 33.3013 467.986 24.1106Z" fill="#045A6C"/>
<path d="M527.841 18.8084C519.191 17.7479 516.423 15.627 516.423 9.97117C516.423 3.60835 517.807 3.25486 529.571 5.02231C557.595 9.97117 561.401 11.3851 561.401 16.334C561.401 21.2828 553.098 21.9898 527.841 18.8084Z" fill="#045A6C"/>
<path d="M177.351 479.144C173.891 478.437 171.123 475.255 171.123 472.427C171.123 468.892 175.621 467.479 186.692 467.479C199.84 467.479 202.262 468.539 202.262 474.548C202.262 479.851 200.186 481.618 192.92 481.265C187.384 480.911 180.465 480.204 177.351 479.144Z" fill="#089CAB"/>
<path d="M260.533 478.601C257.073 477.541 254.305 474.006 254.305 470.471C254.305 464.815 258.111 464.462 295.131 465.522C347.721 467.29 350.142 467.997 323.502 472.946C293.055 478.248 267.799 480.722 260.533 478.601Z" fill="#089CAB"/>
<path d="M109.346 464.201C72.6716 452.182 53.9885 442.284 36.6894 426.377C21.1202 411.884 6.93485 384.312 3.47502 362.395C1.39912 348.963 2.09109 347.195 7.9728 347.195C13.1625 347.195 15.5844 351.437 19.0443 368.405C21.8121 380.07 24.926 389.614 26.6559 389.614C28.3858 389.614 29.7697 392.089 29.7697 394.916C29.7697 397.744 31.4996 400.219 33.2296 400.219C35.3055 400.219 36.6894 405.168 36.6894 410.824C36.6894 420.368 37.7273 421.428 47.0689 421.428C52.9506 421.428 57.4484 423.196 57.4484 424.963C57.4484 427.084 59.8702 428.498 62.6381 428.498C65.406 428.498 67.8279 430.972 67.8279 433.8C67.8279 436.982 70.9417 439.103 75.4395 439.103C85.127 439.103 105.886 446.88 105.886 450.414C105.886 451.828 109 453.242 113.152 453.242C116.957 453.242 126.991 455.01 135.641 457.131C146.712 459.959 150.864 462.787 150.864 467.735C150.864 476.573 144.982 475.866 109.346 464.201Z" fill="#089CAB"/>
<path d="M210.718 468.441C206.22 467.734 202.76 465.26 202.76 463.492C202.76 461.725 197.225 460.311 190.651 460.311C182.347 460.311 178.542 458.544 178.542 455.009C178.542 451.474 175.082 449.706 168.162 449.706C155.361 449.706 140.483 442.99 140.483 436.627C140.483 434.153 136.678 432.032 131.834 432.032C125.606 432.032 123.184 430.264 123.184 424.962C123.184 419.66 120.762 417.892 114.535 417.892C109.691 417.892 105.885 416.478 105.885 414.357C105.885 412.59 103.463 410.822 100.695 410.822C94.1217 410.822 94.1217 405.873 100.695 400.218C104.847 396.683 108.999 398.45 123.876 410.115C147.749 428.85 186.153 447.232 216.6 455.009C252.236 463.846 247.046 475.511 210.718 468.441Z" fill="#089CAB"/>
<path d="M60.9081 411.53C60.9081 410.116 57.4483 407.288 53.2965 405.521C48.4527 403.4 44.9929 398.097 44.3009 392.441C43.609 386.786 41.1871 382.544 38.0733 382.544C34.9594 382.544 33.2295 378.655 33.2295 370.172C33.2295 353.911 37.7273 354.618 47.7608 372.646C52.2586 380.776 62.2921 392.441 70.2497 398.451C78.2073 404.107 84.781 410.116 84.781 411.883C85.1269 413.297 79.5912 414.358 73.0175 414.358C66.4439 414.358 60.9081 413.297 60.9081 411.53Z" fill="#089CAB"/>
<path d="M26.3101 310.078C26.3101 300.18 27.694 297.706 33.2297 297.706C40.4954 297.706 41.5333 301.241 38.0735 314.674C34.6136 327.399 26.3101 324.218 26.3101 310.078Z" fill="#089CAB"/>
<path d="M9.01172 295.939C9.01172 287.102 18.6992 265.893 22.5051 265.893C26.6569 265.893 27.3488 280.739 24.235 293.465C21.8131 302.302 9.01172 304.423 9.01172 295.939Z" fill="#089CAB"/>
<path d="M40.1494 253.52C40.1494 243.622 41.5333 241.148 47.0691 241.148C54.3347 241.148 55.3727 244.683 51.9128 258.115C48.453 270.841 40.1494 267.66 40.1494 253.52Z" fill="#089CAB"/>
<path d="M50.5293 207.213C50.5293 202.971 62.2927 184.59 65.0606 184.59C66.4445 184.59 67.8284 190.246 67.8284 196.962C67.8284 207.92 66.7905 209.334 59.1789 209.334C54.3351 209.334 50.5293 208.274 50.5293 207.213Z" fill="#089CAB"/>
<path d="M153.14 335.182C140.684 333.414 126.153 330.587 120.271 329.173C109.2 326.345 108.854 324.577 113.352 298.065C115.773 283.219 125.461 282.158 125.461 296.652C125.461 307.963 127.537 308.67 177.704 313.266C200.539 315.386 207.805 314.326 231.332 306.549C264.2 295.591 289.457 290.996 333.051 288.168C392.906 284.279 422.314 279.331 435.462 270.14C442.035 265.544 448.263 261.656 448.955 261.656C451.723 261.656 470.752 241.507 476.634 232.316C483.899 220.651 510.886 201.563 520.228 201.563C523.687 201.563 526.801 200.149 526.801 198.028C526.801 196.26 531.991 194.493 538.565 194.493C547.906 194.493 550.674 192.725 552.404 186.009C555.172 173.99 551.02 155.609 545.484 155.609C542.716 155.609 540.641 153.135 540.641 150.307C540.641 147.479 537.527 145.004 533.721 145.004C529.915 145.004 526.801 143.59 526.801 141.823C526.801 140.055 522.995 137.581 518.152 136.521C511.924 134.753 509.502 131.925 509.502 125.562C509.502 120.613 510.886 116.725 512.616 116.725C517.46 116.725 555.172 143.237 572.125 158.437C580.429 166.214 590.116 177.172 593.23 182.828C599.112 193.079 598.766 193.079 579.391 227.014C568.665 245.395 557.248 265.544 553.788 271.554C549.29 280.391 545.138 282.865 529.569 286.047C519.536 287.814 490.127 293.824 464.524 299.126C437.884 304.428 396.02 309.731 367.649 311.498C304.334 315.386 275.964 319.628 244.825 330.587C218.184 340.131 195.004 341.191 153.14 335.182Z" fill="#089CAB"/>
<path d="M123.039 268.018C129.613 251.758 135.84 251.051 135.84 266.604C135.84 277.916 134.802 279.33 127.191 279.33C118.887 279.33 118.541 278.976 123.039 268.018Z" fill="#089CAB"/>
<path d="M142.762 226.66C142.762 224.539 146.568 218.53 151.411 213.227L159.715 203.33L160.061 216.762C160.061 228.427 159.023 229.841 151.411 229.841C146.568 229.841 142.762 228.427 142.762 226.66Z" fill="#089CAB"/>
<path d="M199.501 155.962C207.805 146.418 250.361 117.785 265.584 111.422C277.348 106.12 277.694 106.12 277.694 114.25C277.694 123.087 266.276 130.864 253.475 130.864C249.669 130.864 246.555 133.339 246.555 136.166C246.555 139.701 243.095 141.469 234.792 141.469C224.412 141.469 222.682 142.529 221.644 151.367C220.606 159.85 218.876 160.911 206.767 161.971C193.274 163.032 193.274 163.032 199.501 155.962Z" fill="#089CAB"/>
<path d="M662.773 132.632C658.967 120.967 659.313 120.26 667.271 120.26C674.537 120.26 675.575 122.028 675.575 132.632C675.575 140.409 673.845 145.005 671.077 145.005C668.309 145.005 664.849 139.349 662.773 132.632Z" fill="#089CAB"/>
<path d="M474.905 113.19C474.905 111.422 471.445 109.655 467.293 109.655C462.796 109.655 451.724 107.18 442.383 104.352C433.041 101.524 420.932 99.05 415.396 99.05C407.784 99.05 405.708 97.2825 405.708 91.6267C405.708 84.9104 407.092 84.5569 424.046 86.6778C447.918 89.8592 496.702 106.827 498.432 112.483C499.124 115.311 495.664 116.724 487.36 116.724C480.441 116.724 474.905 115.311 474.905 113.19Z" fill="#089CAB"/>
<path d="M651.356 107.887C648.935 102.939 639.247 94.1013 630.252 87.7385C620.91 81.3757 613.298 75.0129 613.298 73.5989C613.298 71.8315 618.834 70.771 625.408 70.771C633.711 70.771 637.517 72.5384 637.517 76.0733C637.517 78.9013 640.631 81.3757 644.437 81.3757C648.243 81.3757 651.356 83.8501 651.356 86.678C651.356 89.506 653.778 91.9804 656.546 91.9804C660.006 91.9804 661.736 95.8688 661.736 104.353C661.736 118.846 657.93 120.26 651.356 107.887Z" fill="#089CAB"/>
<path d="M288.075 104.706C288.075 100.111 297.763 95.5151 308.142 95.5151C310.218 95.5151 312.294 98.6965 312.294 102.585C312.294 108.241 309.872 109.655 300.185 109.655C292.227 109.655 288.075 107.887 288.075 104.706Z" fill="#089CAB"/>
<path d="M315.753 97.6357C315.753 92.6869 319.559 91.2729 347.929 86.3241C359.001 84.5566 360.731 84.9101 360.731 91.2729C360.731 96.5753 357.617 98.6962 344.815 100.464C320.943 103.645 315.753 103.292 315.753 97.6357Z" fill="#089CAB"/>
<path d="M584.235 82.0831C579.392 76.4272 566.59 66.5295 556.211 59.8132C545.831 53.4504 537.182 46.7341 537.182 45.3201C537.182 43.5527 542.717 42.4922 549.291 42.4922C558.979 42.4922 561.4 43.9061 561.4 49.562C561.4 55.2178 563.822 56.6318 571.78 56.6318C581.121 56.6318 582.159 57.6923 582.159 67.2365C582.159 77.1342 583.197 77.8412 594.269 77.8412C607.416 77.8412 610.184 82.7901 599.805 88.0924C594.961 90.9203 591.501 89.5064 584.235 82.0831Z" fill="#089CAB"/>
<path d="M668.656 85.2647C668.656 81.7298 665.542 77.8414 661.391 76.781C657.585 75.7205 653.433 71.8321 652.395 67.9437C651.357 63.7018 646.859 60.1669 640.632 58.753C632.674 57.339 630.598 54.8646 630.598 47.7948C630.598 42.8459 631.982 38.9575 633.366 38.9575C640.978 38.9575 668.656 61.5809 678.69 76.074L689.761 91.981H679.382C671.078 91.981 668.656 90.5671 668.656 85.2647Z" fill="#089CAB"/>
<path d="M514 37.1895C499.122 30.8267 499.468 24.8174 514.692 24.8174C525.417 24.8174 526.801 25.8779 526.801 33.6546C526.801 38.6035 526.455 42.4919 526.109 42.4919C525.417 42.1384 519.881 40.0175 514 37.1895Z" fill="#089CAB"/>
<path d="M595.999 30.1196C595.999 21.6359 596.345 21.2824 607.07 25.8778C622.986 32.5941 623.678 38.9569 608.454 38.9569C597.383 38.9569 595.999 37.8964 595.999 30.1196Z" fill="#089CAB"/>
<path d="M549.291 23.0496C539.949 20.5752 526.802 18.1008 520.92 18.1008C511.579 17.7473 509.503 16.3333 509.503 10.324C509.503 3.25421 510.887 2.90072 526.11 5.37515C562.092 10.6775 589.079 18.4543 589.079 23.4031C589.079 29.4125 573.856 29.4125 549.291 23.0496Z" fill="#089CAB"/>
<path d="M452.416 20.5755C443.075 18.808 429.927 16.6871 424.045 15.6266C404.67 12.7987 410.206 4.66843 433.387 1.84051C449.994 -0.280432 455.184 0.426548 459.336 5.02192C466.601 12.0917 471.445 12.0917 471.445 5.37541C471.445 -0.280432 483.901 -1.69439 498.432 2.194C510.887 5.7289 507.773 14.2127 493.934 14.2127C485.63 14.2127 481.825 15.9801 481.825 19.515C481.825 25.5243 478.019 25.5243 452.416 20.5755Z" fill="#089CAB"/>
<path d="M364.191 10.6781C370.764 9.26411 383.566 6.78968 392.907 5.37572C406.4 3.60827 409.168 3.96176 409.168 8.55713C409.168 13.1525 404.325 14.213 380.798 13.8595C358.309 13.506 354.503 12.799 364.191 10.6781Z" fill="#089CAB"/>
<path d="M98.2738 459.958C88.2403 454.302 91.0082 449.707 104.156 449.707C113.843 449.707 116.265 451.121 116.265 456.777C116.265 464.554 107.961 465.968 98.2738 459.958Z" fill="#0CA8B4"/>
<path d="M71.9789 449.353C58.4855 444.051 33.9207 425.316 26.3091 414.358L19.0435 403.753H29.4229C37.7265 403.753 40.1484 405.167 40.1484 410.823C40.1484 415.418 42.5703 417.893 47.0681 417.893C51.5659 417.893 53.9877 420.367 53.9877 424.963C53.9877 430.265 56.4096 432.032 63.6753 432.032C76.4766 432.032 82.3583 436.628 80.9744 445.112C80.2824 451.121 78.5525 451.828 71.9789 449.353Z" fill="#0CA8B4"/>
<path d="M164.204 444.502C164.204 436.018 164.55 435.665 175.276 440.26C191.191 446.976 191.883 453.339 176.659 453.339C165.588 453.339 164.204 452.279 164.204 444.502Z" fill="#0CA8B4"/>
<path d="M133.565 430.266C133.565 422.489 132.181 421.429 121.456 421.429C110.038 421.429 109.346 420.722 109.346 410.47V399.159L120.764 408.703C126.645 413.652 137.717 421.429 144.982 425.67C160.898 435.215 161.244 439.103 145.674 439.103C134.949 439.103 133.565 438.043 133.565 430.266Z" fill="#0CA8B4"/>
<path d="M81.667 413.651C82.013 411.177 87.2027 406.581 93.7764 403.4L105.886 397.744V407.642C105.886 416.833 104.848 417.893 93.7764 417.893C86.1648 417.893 81.667 416.126 81.667 413.651Z" fill="#0CA8B4"/>
<path d="M53.9883 400.219V389.614L66.0977 397.391C81.3209 407.642 81.3209 410.823 66.0977 410.823C55.0262 410.823 53.9883 410.116 53.9883 400.219Z" fill="#0CA8B4"/>
<path d="M156.601 322.81C133.074 320.335 113.007 317.154 112.315 316.447C111.277 315.74 111.969 309.377 113.007 302.307C115.429 289.581 125.462 284.633 125.462 296.298C125.462 301.6 130.652 303.368 162.828 306.902C199.502 311.144 200.194 310.791 234.101 300.54C254.514 294.177 283.922 288.521 306.757 286.047C382.527 278.623 404.324 273.674 418.51 260.595C444.804 236.558 449.994 228.781 451.724 212.521C452.762 203.683 454.838 190.958 456.222 184.241L458.644 172.576L480.787 173.99L502.929 175.404L516.769 160.204C525.418 150.66 530.262 141.823 530.262 135.813V126.623L546.523 138.995C561.055 149.953 563.13 153.134 564.168 166.213C564.86 174.697 564.514 186.716 563.13 193.079C561.401 204.037 560.017 205.097 549.637 205.097C542.371 205.097 537.182 207.218 535.798 210.4C534.76 213.228 531.646 214.642 529.224 213.581C522.65 211.107 494.626 230.549 487.014 242.921C481.133 252.465 461.066 273.674 457.606 274.028C456.568 274.381 450.686 277.563 444.458 281.805C432.003 289.581 374.57 299.126 333.052 300.186C303.297 300.893 274.927 306.195 243.096 316.447C206.076 328.112 204.346 328.465 156.601 322.81Z" fill="#0CA8B4"/>
<path d="M139.303 234.084C139.303 230.196 172.518 181.767 177.361 178.586C179.437 177.172 180.821 181.414 180.821 188.837C180.821 197.675 179.437 201.563 175.631 201.563C172.864 201.563 170.442 204.744 170.442 208.633C170.442 213.228 168.02 215.703 163.522 215.703C157.986 215.703 156.602 218.177 156.602 226.307C156.602 235.144 155.218 236.912 147.953 236.912C143.109 236.912 139.303 235.498 139.303 234.084Z" fill="#0CA8B4"/>
<path d="M211.958 147.125C216.456 141.47 247.595 120.26 251.054 120.26C252.438 120.26 253.476 124.149 253.476 129.098C253.476 136.521 251.746 137.935 243.097 137.935C235.139 137.935 232.717 139.349 232.717 145.005C232.717 150.66 230.295 152.074 220.262 152.074C209.536 152.074 208.153 151.367 211.958 147.125Z" fill="#0CA8B4"/>
<path d="M497.741 125.562C494.973 122.734 490.129 120.26 487.361 120.26C484.247 120.26 481.826 118.846 481.826 116.725C481.826 114.957 478.02 113.19 473.176 113.19C466.948 113.19 464.526 111.422 464.526 106.12C464.526 101.878 466.948 99.0503 470.062 99.0503C478.366 99.0503 526.803 123.441 526.803 127.329C526.803 132.985 503.622 131.218 497.741 125.562Z" fill="#0CA8B4"/>
<path d="M339.973 94.1014C339.973 89.506 349.661 84.9106 360.04 84.9106C362.116 84.9106 364.192 88.0921 364.192 91.9804C364.192 97.6363 361.77 99.0502 352.083 99.0502C344.125 99.0502 339.973 97.2828 339.973 94.1014Z" fill="#0CA8B4"/>
<path d="M634.059 88.4455L621.949 78.1943L635.097 77.8408C647.206 77.8408 647.898 78.5478 647.898 88.4455C647.898 94.4548 647.552 99.0502 646.86 99.0502C646.514 99.0502 640.632 94.4548 634.059 88.4455Z" fill="#0CA8B4"/>
<path d="M565.899 66.1763C551.368 56.2786 551.714 53.0972 566.591 53.0972C577.662 53.0972 578.7 53.8041 578.7 63.7019C578.7 69.7112 578.354 74.3066 578.008 73.9531C577.316 73.9531 571.781 70.4182 565.899 66.1763Z" fill="#0CA8B4"/>
<path d="M640.978 54.8644C640.978 43.9062 644.783 43.5527 657.239 54.8644L666.926 63.3482L654.125 63.7017C642.361 63.7017 640.978 62.6412 640.978 54.8644Z" fill="#0CA8B4"/>
<path d="M533.03 45.6733C517.461 37.543 516.077 31.8872 529.917 31.8872C545.486 31.8872 551.022 35.4221 551.022 44.6128C551.022 54.8641 549.638 54.8641 533.03 45.6733Z" fill="#0CA8B4"/>
<path d="M489.783 29.0597C478.019 25.8782 471.446 21.9898 471.446 18.4549C471.446 14.2131 467.986 13.5061 452.763 15.2735C430.966 17.3945 419.548 15.2735 419.548 8.91072C419.548 6.0828 428.198 3.60837 445.497 1.84092C476.636 -0.987003 490.821 1.48743 493.243 11.0317C494.281 14.92 498.086 17.748 502.238 17.748C507.774 17.748 509.504 19.8689 509.504 26.5852C509.504 31.5341 509.158 35.069 508.812 35.069C508.12 34.7155 499.47 32.2411 489.783 29.0597Z" fill="#0CA8B4"/>
<path d="M581.469 32.9476C573.857 30.8267 573.165 17.7476 580.431 17.7476C589.08 17.7476 609.839 27.6453 609.839 31.5337C609.839 35.4221 592.886 36.129 581.469 32.9476Z" fill="#0CA8B4"/>
<path d="M388.41 11.0317C388.41 7.85028 399.828 3.6084 408.477 3.6084C410.553 3.6084 412.629 6.08283 412.629 8.91075C412.629 12.4456 408.823 14.2131 400.52 14.2131C393.946 14.2131 388.41 12.7991 388.41 11.0317Z" fill="#0CA8B4"/>
<path d="M187.73 479.144C175.275 475.962 180.81 467.479 195.342 467.479C206.759 467.479 209.181 468.539 209.181 474.548C209.181 481.618 202.261 483.032 187.73 479.144Z" fill="#0AA4D0"/>
<path d="M254.305 477.541C251.537 475.774 240.812 473.299 231.124 471.885C221.091 470.472 212.787 467.997 212.787 466.23C212.787 464.462 207.251 463.048 200.678 463.048C190.644 463.048 188.568 461.634 188.568 455.625C188.568 449.616 190.298 448.555 196.526 449.969C223.859 456.685 273.334 466.583 278.87 466.583C288.211 466.583 287.174 475.774 277.832 478.602C267.106 481.43 260.533 481.076 254.305 477.541Z" fill="#0AA4D0"/>
<path d="M144.982 473.744C135.987 471.977 130.105 468.442 130.105 465.261C130.105 459.605 135.295 459.251 159.168 462.433C171.623 464.2 175.083 466.321 175.083 471.27C175.083 478.693 168.509 479.4 144.982 473.744Z" fill="#0AA4D0"/>
<path d="M292.363 471.886C292.363 467.644 296.515 466.583 312.43 467.29L332.151 467.997L318.312 472.239C299.282 478.249 292.363 478.249 292.363 471.886Z" fill="#0AA4D0"/>
<path d="M15.9296 397.744C13.1618 392.088 10.3939 386.786 9.70194 385.372C9.00997 383.605 12.4698 382.544 17.3136 382.544C25.2712 382.544 26.3091 383.958 26.3091 394.916C26.3091 409.763 22.1573 410.823 15.9296 397.744Z" fill="#0AA4D0"/>
<path d="M36.6899 377.241C36.6899 362.041 40.1498 361.687 48.1074 375.12C55.719 388.553 55.719 389.613 45.3395 389.613C37.7279 389.613 36.6899 388.199 36.6899 377.241Z" fill="#0AA4D0"/>
<path d="M3.47522 355.678C-2.40649 322.45 13.8547 268.013 45.6851 213.929C68.52 175.752 99.3125 130.859 101.388 132.626C103.464 134.747 81.3214 173.985 77.8615 173.985C76.1316 173.985 74.7477 178.226 74.7477 183.882C74.7477 189.185 72.6718 196.608 70.2499 200.496C67.4821 204.385 60.2164 225.594 53.9887 247.511C46.3771 273.669 40.4954 287.101 37.3815 287.101C33.9217 287.101 32.8838 283.567 33.9217 272.962C34.6137 265.185 33.9217 258.822 32.5378 258.822C30.8079 258.822 29.7699 263.418 29.7699 269.073C29.7699 274.729 28.732 281.799 27.694 284.98C26.3101 289.222 27.694 290.636 32.8838 290.636C37.3815 290.636 40.1494 292.757 40.1494 296.999C39.8034 319.976 26.6561 328.106 25.9641 305.836L25.6181 292.404L21.1203 306.543C18.3525 314.32 16.2766 331.288 16.2766 344.72C15.9306 363.102 14.8927 368.404 10.7409 368.404C7.973 368.404 4.85915 363.455 3.47522 355.678Z" fill="#0AA4D0"/>
<path d="M26.3101 348.962C26.3101 334.823 34.6136 331.641 38.0735 344.721C41.5333 357.8 40.4954 361.335 33.2297 361.335C27.694 361.335 26.3101 358.86 26.3101 348.962Z" fill="#0AA4D0"/>
<path d="M636.826 316.447C639.94 307.61 644.437 300.54 646.859 300.54C649.281 300.54 651.357 301.247 651.357 302.307C651.357 305.135 634.058 332.354 632.328 332.354C631.636 332.354 633.366 325.284 636.826 316.447Z" fill="#0AA4D0"/>
<path d="M663.811 207.925C665.195 199.441 666.233 179.646 666.233 163.739C665.887 138.641 664.503 132.278 655.508 115.311L645.128 95.8687L653.778 87.0314C665.887 74.6593 674.883 72.1849 681.111 80.3151C690.798 93.0408 695.642 104.706 699.448 125.562C703.254 146.418 703.254 146.418 692.874 155.608C683.879 163.739 682.495 166.92 680.419 193.785C677.997 221.358 677.651 222.772 669.693 222.772C661.39 222.772 661.39 222.065 663.811 207.925Z" fill="#0AA4D0"/>
<path d="M4.85866 327.046C2.78277 317.149 5.55063 308.312 11.0864 308.312C14.2002 308.312 15.9301 312.2 15.9301 320.684C15.9301 333.763 7.62653 338.358 4.85866 327.046Z" fill="#08A0D7"/>
<path d="M29.7701 288.869C29.7701 282.153 31.5 276.497 33.2299 276.497C35.3058 276.497 36.6898 273.669 36.3438 270.488C36.3438 266.599 35.3058 265.892 34.2679 268.72C31.846 274.729 19.3906 274.022 19.3906 267.306C19.3906 261.65 31.846 236.906 40.1496 226.655C43.6094 221.706 45.6853 221.352 47.7612 224.534C49.4911 227.008 50.5291 224.887 50.5291 218.878C50.5291 206.859 77.1698 158.785 82.0135 161.613C83.7435 163.027 85.1274 161.966 85.1274 159.492C85.1274 157.017 85.8194 155.957 86.8573 156.664C87.5493 157.724 82.0135 173.278 74.4019 191.659C61.2546 222.766 51.913 248.571 48.4532 262.004C47.7612 265.185 45.3393 275.083 43.2635 284.627C38.7657 304.776 29.7701 307.604 29.7701 288.869Z" fill="#08A0D7"/>
<path d="M642.016 307.61C642.708 300.894 647.551 280.038 652.741 261.656C657.585 243.275 661.737 223.479 661.737 218.177C661.737 211.814 663.121 208.986 665.543 210.754C668.31 212.521 668.656 207.926 666.927 194.847C665.197 182.828 665.889 176.819 668.31 176.819C670.386 176.819 672.116 171.87 672.116 165.861C672.116 152.428 677.652 141.47 684.572 141.47C687.34 141.47 688.723 140.056 687.686 137.935C686.648 136.167 686.994 134.4 688.377 134.4C690.107 134.4 693.221 130.158 695.297 124.502L699.103 114.958L697.719 126.623C696.681 133.693 697.719 137.935 700.141 137.935C705.331 137.935 701.179 176.819 692.529 208.633C684.918 237.266 667.273 277.917 651.703 302.308L640.632 319.982L642.016 307.61Z" fill="#08A0D7"/>
<path d="M86.1658 455.009C71.2885 448.646 71.6345 442.637 86.8577 442.637C97.5832 442.637 98.9671 443.697 98.9671 451.474C98.9671 456.423 98.6212 460.311 98.2752 460.311C97.5832 459.958 92.0475 457.837 86.1658 455.009Z" fill="#0FB6C0"/>
<path d="M178.042 451.218C178.042 443.795 179.08 442.381 184.27 444.502C187.384 445.916 192.92 448.036 196.38 448.743C207.451 452.278 202.953 460.409 190.152 460.409C179.426 460.409 178.042 459.348 178.042 451.218Z" fill="#0FB6C0"/>
<path d="M41.1874 429.205C32.5378 422.489 15.9307 400.572 15.9307 395.977C15.9307 394.563 19.7365 393.149 24.5802 393.149C30.8079 393.149 33.2298 394.916 33.2298 400.219C33.2298 404.107 35.3057 407.289 38.0736 407.289C45.3392 407.289 51.2209 416.479 49.837 426.377C48.799 434.861 48.4531 435.214 41.1874 429.205Z" fill="#0FB6C0"/>
<path d="M58.4869 414.358C52.2592 411.883 50.5293 408.348 50.5293 398.097V385.371L61.2548 394.562C67.1365 399.511 75.4401 404.813 80.2838 405.874C84.7816 406.934 88.5874 410.116 88.5874 412.944C88.5874 418.599 70.5963 419.306 58.4869 414.358Z" fill="#0FB6C0"/>
<path d="M97.2364 403.753C101.734 398.451 104.848 397.744 109.692 400.572C120.071 406.228 117.303 410.823 103.464 410.823C91.3547 410.823 91.0087 410.823 97.2364 403.753Z" fill="#0FB6C0"/>
<path d="M144.491 317.154C127.537 315.386 113.006 313.265 112.314 312.912C111.968 312.558 113.352 304.074 115.428 293.823C119.926 272.26 128.921 268.372 128.921 288.167C128.921 295.591 130.651 300.539 133.419 300.539C135.495 300.539 151.064 302.307 167.326 304.428C195.696 307.963 198.81 307.609 231.332 297.712C250.015 292.056 278.04 285.693 293.263 283.218C347.583 275.088 361.422 269.786 382.873 248.93C393.598 238.325 403.978 229.841 405.708 229.841C407.784 229.841 409.168 228.074 409.168 225.953C409.168 219.59 436.5 195.199 444.804 193.785C450.34 193.079 452.761 189.897 453.453 182.827C454.145 177.171 457.259 171.869 460.373 170.809C463.487 169.395 473.52 161.618 482.17 153.134C514 122.027 521.958 119.553 538.565 134.399L551.021 145.711L526.802 170.809C511.925 186.362 502.583 199.088 502.583 204.037C502.583 217.823 498.431 223.125 480.44 232.316C470.753 237.618 461.757 241.86 460.373 242.214C459.335 242.214 453.453 247.162 447.918 252.818C420.585 280.744 415.395 283.572 387.717 287.814C378.721 289.228 370.763 292.409 369.726 295.591C367.996 299.832 366.612 299.832 361.076 296.298C351.042 289.935 287.036 298.065 244.48 311.144C208.151 322.456 196.734 323.163 144.491 317.154ZM486.322 221.358C489.782 218.53 493.933 211.46 495.663 205.451C498.085 196.26 497.393 193.785 491.166 189.19C480.44 181.413 467.985 182.12 467.985 190.958C467.985 194.492 466.255 201.562 464.179 206.511C461.757 211.46 461.065 217.823 462.103 220.651C464.871 227.367 478.018 227.721 486.322 221.358Z" fill="#0FB6C0"/>
<path d="M488.745 114.605C488.745 109.656 489.783 106.121 491.513 106.828C516.77 119.2 519.192 123.795 500.855 123.795C490.129 123.795 488.745 122.735 488.745 114.605Z" fill="#0FB6C0"/>
<path d="M646.512 99.4038C641.323 93.7479 631.635 86.3247 625.407 82.7898C614.336 76.7804 613.298 76.7804 607.07 82.4363C598.421 90.5665 589.079 90.213 589.079 81.7293C589.079 72.1851 593.231 70.0641 617.104 69.0036C639.593 67.5897 644.436 65.8222 644.436 58.0454C644.436 54.864 640.631 53.0966 634.057 53.0966C627.137 53.0966 623.677 51.3291 623.677 47.7942C623.677 44.2593 620.218 42.4919 613.298 42.4919C604.648 42.4919 602.918 41.0779 602.918 33.6546V24.8174L615.72 30.1197C636.133 38.957 660.352 55.9245 672.461 69.7106L683.186 82.4363L675.229 88.7991C670.731 92.334 665.541 95.5154 664.157 95.5154C662.773 95.5154 660.352 98.6968 658.968 102.585C656.546 109.655 655.854 109.302 646.512 99.4038Z" fill="#0FB6C0"/>
<path d="M507.083 33.6549C492.205 27.292 492.551 21.2827 507.775 21.2827C518.5 21.2827 519.884 22.3432 519.884 30.12C519.884 35.0688 519.538 38.9572 519.192 38.9572C518.5 38.6037 512.964 36.4828 507.083 33.6549Z" fill="#0FB6C0"/>
<path d="M371.11 10.6781C377.683 9.26411 390.485 6.78968 399.826 5.37572C413.319 3.60827 416.087 3.96176 416.087 8.55713C416.087 13.1525 411.244 14.213 387.717 13.8595C365.228 13.506 361.422 12.799 371.11 10.6781Z" fill="#0FB6C0"/>
<path d="M443.767 9.26366C443.767 6.43574 447.918 3.25433 452.762 2.19386C465.218 -0.987547 481.825 2.90084 481.825 9.26366C481.825 12.7986 476.981 14.2125 462.796 14.2125C448.956 14.2125 443.767 12.7986 443.767 9.26366Z" fill="#0FB6C0"/>
<path d="M194.651 479.143C183.234 476.315 187.732 467.478 200.533 467.478C210.221 467.478 212.642 468.892 212.642 474.548C212.642 481.618 207.799 482.678 194.651 479.143Z" fill="#0AAEDE"/>
<path d="M250.846 473.653C250.846 467.644 253.268 466.583 264.685 466.583C280.254 466.583 284.406 474.714 270.913 478.602C256.381 482.49 250.846 481.076 250.846 473.653Z" fill="#0AAEDE"/>
<path d="M163.513 475.609C152.095 472.781 156.593 463.943 169.394 463.943C179.082 463.943 181.504 465.357 181.504 471.013C181.504 478.083 176.66 479.143 163.513 475.609Z" fill="#0AAEDE"/>
<path d="M285.444 471.885C285.444 466.23 297.553 465.169 313.122 469.764C321.08 472.239 320.388 472.592 307.933 474.713C288.212 478.248 285.444 477.895 285.444 471.885Z" fill="#0AAEDE"/>
<path d="M171.123 447.683C171.123 442.734 172.161 439.199 173.891 439.906C199.148 452.278 201.57 456.873 183.232 456.873C172.507 456.873 171.123 455.813 171.123 447.683Z" fill="#0AAEDE"/>
<path d="M12.1256 387.492C-3.44363 351.436 5.20594 292.05 33.9225 237.612C51.5677 204.738 77.8624 163.379 81.3222 163.379C83.0521 163.379 77.5164 180.347 69.2128 201.556C32.1926 295.938 28.0408 348.608 53.9895 386.432L61.2552 396.683H45.6859C37.0364 396.683 29.7707 398.45 29.7707 400.218C29.7707 402.339 27.3488 403.753 24.235 403.753C21.4671 403.753 15.9314 396.683 12.1256 387.492Z" fill="#0AAEDE"/>
<path d="M654.124 108.947C646.859 96.9288 644.091 88.4451 647.897 88.4451C649.973 88.4451 654.47 85.2636 658.622 81.0218C664.504 75.0124 664.85 72.8915 661.044 68.2961C657.238 63.3473 657.238 62.9938 663.466 66.1752C667.272 68.2961 673.153 73.245 676.613 77.1334C682.841 84.2032 682.841 84.5567 672.461 90.566C661.39 97.2823 656.2 106.827 660.006 113.189C661.044 114.957 661.39 116.724 660.698 116.724C659.66 116.724 656.892 113.189 654.124 108.947Z" fill="#0AAEDE"/>
<path d="M112.806 414.004V403.4L123.185 410.823C138.408 421.781 138.754 424.963 125.261 424.963C113.844 424.963 112.806 424.256 112.806 414.004Z" fill="#14C3C6"/>
<path d="M142.762 313.266C115.083 309.731 113.354 309.024 114.391 301.601C115.429 293.824 116.467 293.824 142.07 296.298C196.389 301.601 207.461 300.187 246.557 283.219C267.316 274.382 294.995 258.828 311.256 246.81C326.825 235.498 341.01 226.307 342.74 226.307C344.47 226.307 350.006 221.005 354.85 214.996C359.693 208.633 375.263 190.958 389.794 175.758C404.325 160.205 416.089 146.419 416.089 145.005C416.089 143.591 424.738 135.814 435.118 127.684C445.843 119.553 453.455 111.423 452.417 110.009C450.341 106.121 423.008 99.051 411.245 99.051C404.325 99.051 402.249 97.2835 402.249 91.6277C402.249 85.2648 403.633 84.5579 418.857 86.6788C446.189 90.5672 482.171 102.586 510.542 117.432C538.221 132.279 542.026 136.167 530.263 136.874C521.613 137.581 512.964 143.944 492.551 163.74C483.901 172.223 473.868 180 470.754 181.414C466.948 182.828 464.526 187.423 464.526 192.019C464.526 202.27 457.261 209.693 449.995 206.865C446.881 205.451 443.075 208.279 440.307 213.935C437.886 218.884 435.118 222.065 434.08 221.005C432.35 219.238 421.278 229.842 421.278 233.731C421.278 236.912 416.435 242.214 413.321 242.214C411.937 242.568 403.287 249.991 393.6 259.535C370.073 282.159 369.727 282.512 305.374 293.47C283.577 297.359 253.131 304.429 237.907 309.378C207.807 318.922 189.816 319.629 142.762 313.266Z" fill="#14C3C6"/>
<path d="M118.543 284.986C118.543 276.502 132.036 247.516 135.842 247.516C137.572 247.516 139.302 253.172 139.302 259.888C139.302 266.605 137.918 272.26 135.842 272.26C134.112 272.26 132.382 276.149 132.382 281.098C132.382 287.46 130.652 289.935 125.463 289.935C121.657 289.935 118.543 287.814 118.543 284.986Z" fill="#14C3C6"/>
<path d="M192.929 162.679C193.967 160.911 199.503 155.963 205.038 152.074L215.418 144.651V155.256C215.418 165.507 214.38 166.214 202.962 166.214C196.043 166.214 191.545 164.8 192.929 162.679Z" fill="#14C3C6"/>
<path d="M271.467 112.837C273.197 107.888 308.833 92.6876 320.251 92.3341C324.057 91.9806 326.132 94.455 326.132 99.0504C326.132 104.353 323.711 106.12 316.099 106.12C310.563 106.12 305.373 107.888 304.682 110.009C303.99 112.13 296.032 114.604 286.69 115.664C273.197 117.432 270.083 116.725 271.467 112.837Z" fill="#14C3C6"/>
<path d="M343.432 94.1019C343.432 89.5065 353.12 84.9111 363.499 84.9111C365.575 84.9111 367.651 88.0925 367.651 91.9809C367.651 97.6368 365.229 99.0507 355.542 99.0507C347.584 99.0507 343.432 97.2833 343.432 94.1019Z" fill="#14C3C6"/>
<path d="M595.999 77.4875C595.999 68.2968 597.037 67.2363 608.108 67.2363C623.678 67.2363 623.678 74.3061 608.108 81.7294L595.999 87.3853V77.4875Z" fill="#14C3C6"/>
<path d="M644.437 56.6321C644.437 46.0274 644.437 46.0274 653.087 51.6832C657.93 54.8646 661.736 59.8135 661.736 62.2879C661.736 65.1159 658.276 67.2368 653.087 67.2368C645.821 67.2368 644.437 65.4693 644.437 56.6321Z" fill="#14C3C6"/>
<path d="M548.599 53.8041C540.295 48.5017 533.722 43.1994 533.722 41.7854C533.722 40.018 539.257 38.9575 545.831 38.9575C552.405 38.9575 557.94 40.725 557.94 42.4924C557.94 44.6134 560.362 46.0273 563.13 46.0273C566.244 46.0273 568.32 49.2087 568.32 54.8646C568.32 65.8228 566.59 65.8228 548.599 53.8041Z" fill="#14C3C6"/>
<path d="M613.99 46.3805C611.222 44.9666 609.838 40.0177 610.53 35.7758L611.568 28.3525L626.445 35.7758C634.403 40.0177 640.976 44.6131 640.976 46.3805C640.976 50.2689 619.871 50.6224 613.99 46.3805Z" fill="#14C3C6"/>
<path d="M545.831 23.0506C536.49 20.5761 523.343 18.1017 517.461 18.1017C508.465 17.7482 506.043 16.3343 506.043 10.3249C506.043 3.9621 507.427 3.25512 522.651 5.37606C558.287 10.6784 585.62 18.4552 585.62 23.4041C585.62 29.4134 570.396 29.4134 545.831 23.0506Z" fill="#14C3C6"/>
<path d="M467.294 22.3434C455.877 19.5155 460.375 10.6782 473.176 10.6782C482.864 10.6782 485.286 12.0922 485.286 17.748C485.286 24.8178 480.442 25.8783 467.294 22.3434Z" fill="#14C3C6"/>
<path d="M429.237 15.2736C417.819 12.4456 422.317 3.6084 435.119 3.6084C444.806 3.6084 447.228 5.02236 447.228 10.6782C447.228 17.748 442.384 18.8085 429.237 15.2736Z" fill="#14C3C6"/>
<path d="M386.679 8.55751C418.163 2.54818 419.547 2.54818 419.547 8.911C419.547 13.1529 414.357 14.2133 391.177 13.8599L362.46 13.5064L386.679 8.55751Z" fill="#14C3C6"/>
<path d="M246.002 478.248C244.964 476.834 243.926 472.946 243.926 469.411C243.926 463.401 246.002 463.048 269.183 465.169C282.676 466.583 295.132 469.411 296.516 471.532C297.9 473.653 298.592 475.42 298.246 475.773C295.824 477.541 247.732 479.662 246.002 478.248Z" fill="#07C3F2"/>
<path d="M162.973 475.864C123.531 467.734 119.725 466.674 119.725 461.371C119.725 456.776 122.493 456.422 136.332 458.19C145.328 459.604 159.859 461.371 169.201 462.785C182.002 464.199 185.462 465.967 185.462 471.269C185.462 477.985 179.58 479.046 162.973 475.864Z" fill="#07C3F2"/>
<path d="M202.262 460.408C202.262 452.985 205.722 451.924 218.869 455.459C231.324 458.994 228.21 467.478 214.371 467.478C204.684 467.478 202.262 466.064 202.262 460.408Z" fill="#07C3F2"/>
<path d="M21.4661 405.873C18.3523 400.925 16.9683 394.562 18.0063 391.38C20.4282 385.018 33.9215 381.129 44.301 383.604C49.8367 385.018 50.5287 384.664 47.4149 381.483C45.339 379.362 43.609 375.827 43.609 374.059C43.609 371.938 47.4149 376.18 52.2586 383.25C62.6381 398.804 62.6381 400.218 54.6805 400.218C51.2207 400.218 44.993 403.399 40.8412 407.287C31.1537 416.478 28.3858 416.125 21.4661 405.873Z" fill="#07C3F2"/>
<path d="M651.701 86.678C663.465 80.3152 666.578 71.8314 658.967 67.5896C655.853 65.4686 654.815 63.7012 656.891 63.7012C659.313 63.7012 663.811 66.5291 667.616 70.064C671.076 73.2454 673.498 75.7198 672.806 75.3663C671.768 75.0129 666.578 78.5478 661.043 83.1431C655.507 88.092 648.933 91.9804 646.857 91.9804C644.435 91.6269 646.857 89.5059 651.701 86.678Z" fill="#07C3F2"/>
<path d="M160.06 310.084C159.022 309.024 148.643 307.61 136.533 307.257C113.699 306.55 112.661 305.136 117.158 287.461C119.58 278.27 128.922 276.503 128.922 284.987C128.922 289.936 131.69 290.643 149.681 288.522C161.444 287.108 175.629 283.219 181.857 279.331C188.085 275.796 196.734 271.908 201.578 270.494C206.422 269.08 225.105 257.768 243.096 245.396C261.433 233.024 278.732 222.772 281.846 222.772C284.614 222.772 298.799 210.754 312.639 196.261C326.824 181.768 339.625 169.749 341.009 169.749C342.739 169.749 349.659 163.033 356.579 154.902C373.878 134.753 377.338 131.219 396.713 114.251C412.628 99.7579 412.974 99.0509 404.324 99.0509C397.405 99.0509 395.329 97.2835 395.329 91.6276C395.329 84.9113 396.713 84.5578 415.396 86.6788C426.121 88.0927 447.572 93.3951 462.795 97.9905L490.128 106.828L479.749 112.837C474.213 116.018 459.681 126.27 447.918 135.814C427.505 152.428 421.623 158.437 430.965 153.842C433.041 152.428 429.581 156.67 423.007 162.679C416.434 168.688 411.244 175.405 411.936 177.172C412.282 179.293 411.59 180 410.206 179.293C406.746 177.172 398.443 186.009 401.21 188.837C402.594 189.898 401.556 190.958 399.134 190.958C393.945 190.958 379.413 208.633 380.797 213.228C381.143 214.996 380.105 215.349 378.375 214.289C376.646 212.875 370.764 217.47 365.574 224.54C360.73 231.256 354.849 236.912 353.119 236.912C351.389 236.912 337.204 246.103 321.634 257.414C306.065 269.08 277.694 284.987 258.665 293.47C228.565 306.55 219.915 309.024 192.929 310.438C175.975 311.145 161.098 311.145 160.06 310.084Z" fill="#1AD4CE"/>
<path d="M129.961 253.88C136.535 237.619 142.763 236.912 142.763 252.466C142.763 263.778 141.725 265.192 134.113 265.192C125.81 265.192 125.464 264.838 129.961 253.88Z" fill="#1AD4CE"/>
<path d="M146.222 223.125C146.222 221.004 150.027 214.995 154.871 209.693L163.175 199.795L163.521 213.228C163.521 224.893 162.483 226.307 154.871 226.307C150.027 226.307 146.222 224.893 146.222 223.125Z" fill="#1AD4CE"/>
<path d="M447.918 200.855C438.576 191.311 448.956 166.213 462.449 166.213C469.369 166.213 472.483 177.172 466.601 181.767C463.833 183.888 461.065 189.544 460.373 194.139C458.989 204.037 453.8 206.865 447.918 200.855Z" fill="#1AD4CE"/>
<path d="M170.439 187.777C174.245 182.121 184.971 170.809 193.966 162.679C209.19 148.893 210.228 148.186 211.265 155.609C213.341 168.688 209.536 173.284 196.388 173.284C184.971 173.284 184.279 173.991 184.279 185.656C184.279 196.968 183.587 198.028 173.553 198.028H163.174L170.439 187.777Z" fill="#1AD4CE"/>
<path d="M264.547 116.019C265.585 113.544 271.121 109.656 277.003 107.181C287.728 102.586 288.074 102.94 288.074 111.423C288.074 119.2 286.69 120.261 275.619 120.261C267.661 120.261 263.855 118.847 264.547 116.019Z" fill="#1AD4CE"/>
<path d="M346.891 94.1019C346.891 89.5065 356.578 84.9111 366.958 84.9111C369.034 84.9111 371.109 88.0925 371.109 91.9809C371.109 97.6368 368.688 99.0507 359 99.0507C351.042 99.0507 346.891 97.2833 346.891 94.1019Z" fill="#1AD4CE"/>
<path d="M580.083 77.4882C574.547 71.4789 565.898 64.0556 560.708 60.8742C547.906 53.0974 548.598 49.5625 563.13 49.5625C569.703 49.5625 575.239 51.3299 575.239 53.0974C575.239 55.2183 577.315 56.6323 579.737 56.6323C587.348 56.6323 603.956 76.7812 601.88 82.7906C598.42 91.2743 591.5 89.5069 580.083 77.4882Z" fill="#1AD4CE"/>
<path d="M524.381 40.7242C509.504 34.3614 509.85 28.3521 525.073 28.3521C535.799 28.3521 537.182 29.4125 537.182 37.1893C537.182 42.1382 536.836 46.0266 536.491 46.0266C535.799 45.6731 530.263 43.5521 524.381 40.7242Z" fill="#1AD4CE"/>
<path d="M591.847 37.8964C585.273 35.422 582.159 31.5336 582.159 26.2313C582.159 18.101 582.505 18.101 595.653 23.0498C614.336 29.7662 623.677 35.0685 623.677 38.9569C623.677 43.5523 603.956 42.8453 591.847 37.8964Z" fill="#1AD4CE"/>
<path d="M445.497 17.7476C439.961 16.3336 422.662 14.9197 407.438 14.5662C389.447 14.2127 381.49 13.1522 384.604 11.0313C392.907 5.72892 428.197 2.54751 450.686 5.37543C467.985 7.49637 471.445 8.91033 471.445 14.5662C471.445 21.9895 464.526 22.6964 445.497 17.7476Z" fill="#1AD4CE"/>
<path d="M515.731 18.8082C505.352 17.7477 502.584 15.9803 502.584 10.3244C502.584 3.60812 503.968 3.25463 517.461 5.37557C546.178 9.61745 551.022 11.3849 551.022 16.3338C551.022 21.2826 544.448 21.6361 515.731 18.8082Z" fill="#1AD4CE"/>
<path d="M173.353 476.219C98.6206 464.907 84.7812 456.07 135.987 451.828C152.594 450.767 167.125 447.94 168.509 445.819C169.893 443.344 176.121 443.698 187.538 447.94C209.681 455.716 259.849 467.382 270.228 467.382C275.072 467.382 278.878 469.149 278.878 470.916C278.878 473.037 282.338 474.805 286.835 474.805C290.987 475.158 285.105 476.572 273.688 477.986C243.933 481.875 205.183 481.168 173.353 476.219Z" fill="#09CBF3"/>
<path d="M31.8461 418.247C20.7746 406.582 20.7746 405.875 30.4621 396.684C40.8416 387.14 53.297 387.847 62.9845 398.805C73.364 410.117 73.364 414.359 63.3305 414.359C58.8328 414.359 51.9131 417.54 48.1073 421.075C41.1876 427.791 40.8416 427.791 31.8461 418.247Z" fill="#09CBF3"/>
<path d="M634.057 83.8506C634.057 81.0227 637.862 77.1343 642.706 75.0134C647.55 72.8925 651.356 67.9436 651.356 64.4087C651.356 60.8738 653.778 57.6924 656.546 57.6924C659.313 57.6924 661.735 59.4598 661.735 61.2273C661.735 62.9947 663.811 66.5296 666.579 68.6506C670.731 71.832 670.385 73.5994 664.503 79.6088L657.237 86.6786L661.389 78.9018C665.887 69.711 659.313 62.6412 654.47 71.4785C652.74 74.6599 647.55 79.6088 642.706 82.7902C635.787 87.3855 634.057 87.739 634.057 83.8506Z" fill="#09CBF3"/>
<path d="M131.836 468.795C130.106 468.441 119.38 465.26 108.309 462.079L88.2417 456.423L89.2796 443.344C90.3176 431.325 91.3555 430.264 105.541 426.023C114.19 423.548 122.494 420.013 124.224 418.246C126.646 415.771 130.798 416.832 136.679 421.074C148.443 429.557 180.273 445.818 195.842 451.474L207.952 456.069H195.15C186.501 456.069 182.695 454.655 184.079 452.181C185.117 449.706 183.733 450.413 181.311 453.948C178.543 457.13 168.51 460.665 157.784 462.079C147.405 463.493 138.063 465.613 137.025 467.027C135.987 468.795 133.911 469.502 131.836 468.795Z" fill="#08D2F4"/>
<path d="M39.1112 425.669C35.6514 422.134 33.2295 417.893 33.2295 416.125C33.2295 411.176 44.9929 404.106 53.2965 403.753C57.7943 403.753 60.5621 402.339 59.5242 400.572C58.4862 399.158 62.984 400.218 69.5577 403.046C85.4729 410.469 84.781 416.479 67.8278 419.307C59.8702 420.367 52.9505 423.902 51.9126 426.73C49.1447 433.8 46.0309 433.446 39.1112 425.669Z" fill="#08D2F4"/>
<path d="M647.896 66.1763C647.896 59.1065 649.625 53.0972 651.355 53.0972C653.431 53.0972 654.815 54.8646 654.815 56.9856C654.815 58.753 656.545 59.46 658.275 58.3995C664.503 54.5111 662.081 63.7019 654.815 71.4786L647.896 79.2554V66.1763Z" fill="#08D2F4"/>
<path d="M115.084 300.539C115.084 286.753 144.147 219.236 149.683 219.236C154.527 219.236 153.835 238.325 148.991 249.283C146.915 254.232 143.109 258.12 140.341 258.12C137.919 258.12 135.843 260.595 135.843 263.776C135.843 267.664 137.573 268.725 141.379 267.311C144.493 266.25 149.683 265.19 153.143 265.19C156.602 265.19 167.328 259.534 177.361 252.818C187.395 246.102 197.428 240.446 200.196 240.446C202.964 240.446 205.04 239.032 205.04 237.264C205.04 233.376 230.297 222.771 239.638 222.771C243.444 222.771 246.558 221.357 246.558 219.236C246.558 214.287 263.857 198.734 274.583 194.138C288.422 188.483 363.5 101.171 356.235 99.7567C345.509 97.6357 350.007 88.7985 362.808 86.324C374.572 84.2031 416.436 86.6775 437.195 90.9194C445.844 92.6869 446.19 93.0404 441 99.4032C437.887 102.938 433.735 106.119 431.659 106.119C427.161 106.119 387.373 141.468 375.264 156.315C361.424 173.283 354.159 180.352 350.699 180.352C348.969 180.352 345.509 183.18 343.087 186.362C338.935 191.664 338.935 192.018 343.433 189.19C346.547 187.422 347.585 187.422 345.855 189.543C344.125 191.311 341.703 192.725 339.973 192.725C338.589 192.725 328.21 201.915 317.139 213.227C306.413 224.185 294.996 233.376 291.882 233.376C289.114 233.376 271.815 243.627 253.478 255.999C235.487 268.371 216.803 279.683 211.96 281.097C207.116 282.511 198.12 286.753 191.547 290.288C183.935 294.883 169.404 298.065 147.607 299.832C129.616 301.246 115.084 301.599 115.084 300.539Z" fill="#1FE0D3"/>
<path d="M172.172 186.009C182.551 169.749 248.288 116.725 257.629 116.725C259.359 116.725 260.397 120.613 260.397 125.562C260.397 132.632 258.667 134.4 251.748 134.4C246.212 134.4 243.098 136.521 243.098 139.702C243.098 142.53 239.984 145.004 236.178 145.004C232.373 145.004 229.259 147.479 229.259 150.307C229.259 153.842 225.799 155.609 217.495 155.609C206.424 155.609 205.386 156.669 204.348 167.274C203.656 175.758 201.58 178.939 195.698 179.646C190.509 180.353 187.741 183.181 187.741 187.777C187.741 193.079 185.319 194.493 177.361 194.493C166.982 194.493 166.982 194.139 172.172 186.009Z" fill="#1FE0D3"/>
<path d="M449.649 181.767C445.843 177.879 450.687 173.283 458.298 173.283C464.18 173.283 464.526 173.99 461.066 178.586C456.568 184.241 453.108 185.302 449.649 181.767Z" fill="#1FE0D3"/>
<path d="M292.226 105.413C293.956 100.464 310.563 94.1014 330.976 90.213C341.702 88.092 343.432 88.4455 343.432 94.4548C343.432 99.7572 339.626 102.232 325.787 105.413C302.606 111.069 290.496 110.715 292.226 105.413Z" fill="#1FE0D3"/>
<path d="M585.62 79.6084C572.473 64.7618 528.879 40.371 500.509 31.1803C474.214 23.05 466.602 14.2127 485.285 14.2127C492.551 14.2127 495.665 12.4453 495.665 8.55691C495.665 2.19409 510.196 3.25456 556.558 12.7988C607.763 23.4035 652.395 49.5617 619.181 49.5617C606.379 49.5617 600.844 56.6316 596.346 77.4875L594.27 89.1526L585.62 79.6084ZM573.511 33.3012C569.359 28.7058 516.77 16.3337 514.002 18.8081C513.31 19.8686 516.77 21.2825 521.614 22.6965C526.457 24.1105 530.263 26.5849 530.263 28.3523C530.263 30.4733 534.069 31.8872 538.913 31.8872C544.448 31.8872 547.562 34.0082 547.562 37.1896C547.562 40.371 550.676 42.492 556.212 42.492C561.748 42.492 564.861 44.6129 564.861 48.1478C564.861 52.3897 566.245 52.0362 571.435 45.6734C576.625 39.3105 576.971 36.4826 573.511 33.3012Z" fill="#1FE0D3"/>
<path d="M420.586 14.5657C400.865 12.4448 386.679 7.49594 400.865 7.49594C404.67 7.49594 417.818 6.43547 430.965 5.02151C453.108 2.90057 454.146 2.90057 454.146 10.3239C454.146 15.2727 452.07 17.3937 448.264 17.0402C444.804 17.0402 432.349 15.6262 420.586 14.5657Z" fill="#1FE0D3"/>
<path d="M73.0177 448.294C59.8703 441.931 44.993 432.033 40.1493 426.731C35.3055 421.075 33.5756 417.894 35.9975 419.308C38.0734 420.722 40.1493 420.015 40.1493 417.894C40.1493 411.531 58.1404 406.229 77.1695 406.582C87.203 406.936 96.1985 405.522 97.2365 403.754C101.042 397.391 109.692 400.219 124.223 412.238C132.181 418.601 143.944 426.731 150.172 429.912C163.319 436.982 164.357 438.75 152.594 436.275C147.75 435.568 143.944 433.447 143.944 431.68C143.944 429.912 141.522 428.499 138.754 428.499C135.987 428.499 133.565 429.912 133.565 431.326C133.565 432.74 129.413 434.508 124.223 434.861C119.033 435.215 114.19 436.629 113.152 438.396C112.114 439.81 108.654 440.871 105.886 440.871C102.426 440.871 101.042 444.052 101.388 450.768C101.734 456.071 101.042 460.313 99.6584 460.313C98.2744 459.959 86.511 454.657 73.0177 448.294Z" fill="#12D6F0"/>
<path d="M626.099 82.0825C615.028 75.0127 614.682 73.2452 623.677 62.994C627.137 58.3987 632.673 51.6824 635.095 48.1475C639.938 41.4311 640.284 41.4311 648.934 50.2684C653.778 55.2173 658.621 58.3987 659.659 57.3382C660.697 56.2777 661.735 56.6312 661.735 58.0452C661.735 62.994 650.664 77.4871 643.052 82.436C636.133 87.0314 634.403 87.0314 626.099 82.0825Z" fill="#12D6F0"/>
<path d="M619.526 78.5479C613.298 77.134 610.53 60.1665 616.412 60.1665C618.142 60.1665 621.256 55.5711 623.677 49.5618C628.521 37.1896 627.829 37.8966 639.247 43.1989C649.972 48.1478 649.972 51.3292 640.285 66.1758C631.635 78.9014 628.521 80.6689 619.526 78.5479Z" fill="#0EE0F3"/>
<path d="M120.271 288.169C126.845 258.475 142.76 234.792 146.912 248.224C151.064 260.596 256.935 174.698 291.533 130.512L301.566 118.14L291.187 119.554C285.651 120.261 281.153 122.382 281.153 123.796C281.153 127.331 264.892 134.4 256.935 134.4C253.129 134.4 250.015 136.875 250.015 139.703C250.015 143.238 246.209 145.005 237.906 145.005C227.18 145.005 225.796 146.066 225.796 153.842C225.796 161.619 224.412 162.68 213.341 162.68C202.615 162.68 201.231 161.973 205.037 157.377C207.459 154.549 219.915 144.652 233.062 135.814C273.888 108.242 319.212 93.0421 364.189 91.9817C404.323 90.9212 416.779 91.6282 414.703 95.1631C413.665 96.9305 409.513 97.6375 405.707 96.577C401.556 95.5166 398.096 96.9305 396.712 100.465C395.674 103.647 393.252 105.061 391.522 104.354C390.138 103.293 385.64 105.414 381.489 109.656C377.683 113.545 374.223 116.372 373.531 116.019C372.839 115.312 354.848 135.107 333.397 159.852C311.946 184.243 290.149 206.159 284.959 208.28C273.196 213.582 256.935 228.782 256.935 234.438C256.935 237.266 252.091 239.033 244.479 239.033C237.906 239.033 231.332 240.447 229.948 242.568C228.564 244.336 225.104 246.103 222.336 246.81C219.569 247.517 216.801 249.638 216.109 251.406C215.417 253.173 212.649 254.587 210.227 254.587C207.805 254.587 197.772 260.243 187.738 266.959C177.705 273.676 167.325 279.331 164.557 279.331C156.254 279.331 124.077 290.997 120.963 294.885C119.233 297.006 118.887 294.178 120.271 288.169Z" fill="#23EAD7"/>
<path d="M142.762 234.084C142.762 228.781 166.289 195.907 181.166 180.353L196.389 164.446L197.427 174.344C198.811 186.716 192.929 194.493 182.204 194.493C175.284 194.493 173.9 196.26 173.9 205.098C173.9 213.228 172.516 215.702 166.981 215.702C161.445 215.702 160.061 218.177 160.061 226.307C160.061 235.144 158.677 236.912 151.411 236.912C146.568 236.912 142.762 235.851 142.762 234.084Z" fill="#23EAD7"/>
<path d="M561.4 62.9943C554.826 59.1059 542.025 51.6826 533.029 47.0873C513.308 36.8361 511.924 31.8872 528.531 31.8872C535.105 31.8872 540.641 33.6547 540.641 35.4221C540.641 37.543 543.755 38.957 547.56 38.957C551.366 38.957 554.48 41.0779 554.48 43.9059C554.48 46.7338 560.016 49.5617 568.665 50.9757C579.737 52.7431 582.505 54.5106 580.775 58.7524C579.737 61.9339 578.699 65.8222 578.699 67.5897C578.699 72.5386 574.547 71.4781 561.4 62.9943Z" fill="#23EAD7"/>
<path d="M463.833 24.1108C449.302 20.2225 445.842 10.6782 458.989 10.6782C476.98 10.6782 488.744 14.9201 488.744 21.6364C488.744 29.0597 483.9 29.4132 463.833 24.1108Z" fill="#23EAD7"/>
<path d="M531.3 25.8778C522.651 24.8173 519.883 22.6963 519.883 17.0405C519.883 10.6777 521.267 10.3242 533.03 12.0916C561.055 17.0405 564.861 18.4545 564.861 23.4033C564.861 28.3522 556.557 29.0592 531.3 25.8778Z" fill="#23EAD7"/>
<path d="M492.204 14.2133C492.204 6.79004 495.664 5.72957 508.811 9.26447C521.267 12.7994 518.153 21.2831 504.314 21.2831C494.626 21.2831 492.204 19.8692 492.204 14.2133Z" fill="#23EAD7"/>
<path d="M586.309 79.6079C582.158 74.6591 580.428 70.7707 582.158 70.7707C584.234 70.7707 585.617 69.0032 585.617 66.8823C585.617 58.752 597.035 38.9566 601.533 38.9566C604.301 38.9566 606.376 37.5426 606.376 36.1287C606.376 34.3612 608.798 32.9473 611.566 32.9473C614.334 32.9473 616.756 34.3612 616.756 36.1287C616.756 37.8961 618.14 38.2496 620.216 37.1891C621.946 36.1287 628.173 37.5426 634.055 40.724C643.397 45.6729 644.089 46.7334 639.245 51.6822C636.477 54.8636 634.055 58.3985 634.055 59.8125C634.055 65.8218 620.908 77.8405 614.334 77.8405C610.182 77.8405 605.338 80.3149 602.917 83.1428C597.035 90.2126 594.959 89.8592 586.309 79.6079Z" fill="#11E6F2"/>
<path d="M571.78 65.8224C571.78 61.934 580.776 39.3107 585.62 30.8269L591.501 20.9292L593.231 30.1199C594.615 36.4828 592.539 42.4921 587.004 49.5619C582.506 54.8642 578.7 61.2271 578.7 63.348C578.7 65.4689 577.316 67.2364 575.24 67.2364C573.51 67.2364 571.78 66.5294 571.78 65.8224Z" fill="#11E6F2"/>
<path d="M134.805 254.94C131.691 242.568 156.256 204.744 189.124 171.163C225.106 134.753 256.591 114.604 299.839 100.818C323.02 93.7485 327.517 93.0416 331.669 97.2834C337.551 102.939 337.897 109.656 332.707 109.656C330.631 109.656 311.602 128.037 290.843 150.307C255.207 188.13 189.816 242.921 164.559 256C149.336 263.777 137.227 263.424 134.805 254.94Z" fill="#31FCDC"/>
<path d="M136.88 258.829C135.842 255.647 134.458 252.112 133.766 251.052C133.42 249.991 138.956 248.931 146.221 248.577C153.833 248.224 167.326 244.335 176.322 240.094C185.317 235.498 194.659 231.256 196.389 230.196C205.73 225.954 188.085 241.861 175.284 249.638C153.141 263.07 139.302 266.252 136.88 258.829Z" fill="#32FAEA"/>
<path d="M213.688 217.824C221.3 210.754 230.642 203.331 234.447 201.21C242.751 196.968 225.106 212.875 210.229 223.48C202.963 228.428 204.347 226.661 213.688 217.824Z" fill="#32FAEA"/>
<path d="M323.364 115.311C327.17 110.716 316.099 101.525 309.525 104.353C303.989 106.474 303.989 106.12 309.525 100.465C316.099 93.7483 334.782 92.3343 340.317 97.9902C342.739 100.465 340.317 104.353 332.36 110.009C326.132 114.251 321.98 116.725 323.364 115.311Z" fill="#32FAEA"/>
<path d="M571.78 63.7013C571.78 61.9339 570.742 60.5199 569.358 60.8734C567.628 61.5804 557.941 56.985 547.561 50.6222C516.077 32.2407 456.568 14.5662 424.737 14.2127L410.898 13.8592L420.931 8.2034C429.581 3.60803 438.923 2.90105 476.289 4.6685C522.996 6.78944 582.16 15.9802 582.16 21.636C582.16 23.4035 584.235 23.757 587.003 22.6965C595.999 19.1616 595.999 38.6035 587.003 49.5617C582.506 54.8641 578.7 61.2269 578.7 63.3478C578.7 65.4688 577.316 67.2362 575.24 67.2362C573.51 67.2362 571.78 65.8223 571.78 63.7013Z" fill="#32FAEA"/>
</svg>
